<?xml version="1.0" standalone="no"?>
<!DOCTYPE svg PUBLIC "-//W3C//DTD SVG 1.1//EN" "http://www.w3.org/Graphics/SVG/1.1/DTD/svg11.dtd" >
<svg xmlns="http://www.w3.org/2000/svg">
<metadata>Generated by IcoMoon</metadata>
<defs>
<font id="icomoon" horiz-adv-x="1024">
<font-face units-per-em="1024" ascent="960" descent="-64" />
<missing-glyph horiz-adv-x="1024" />
<glyph unicode="&#x20;" horiz-adv-x="512" d="" />
<glyph unicode="&#xe900;" glyph-name="arrow-up" d="M556.928 747.093c0.64-0.768 0.896-1.792 1.536-2.56l446.817-493.663c24.959-27.773 24.959-72.827 0-100.6-0.256-0.256-0.512-0.384-0.768-0.512-5.553-6.725-12.507-12.157-20.378-15.916s-16.466-5.752-25.187-5.843h-893.763c-8.881 0.143-17.622 2.235-25.606 6.127s-15.016 9.491-20.599 16.399l-0.256-0.256c-12.078 13.975-18.725 31.828-18.725 50.3s6.647 36.326 18.725 50.3l447.841 496.222c5.576 6.535 12.502 11.783 20.302 15.382s16.288 5.462 24.878 5.462c8.591 0 17.079-1.864 24.879-5.462s14.726-8.847 20.302-15.382z" />
<glyph unicode="&#xe901;" glyph-name="arrow-down" d="M556.928 148.906c0.64 0.768 0.896 1.792 1.536 2.56l446.817 493.663c24.959 27.773 24.959 72.826 0 100.601-0.256 0.256-0.512 0.384-0.768 0.512-5.553 6.725-12.507 12.157-20.378 15.915s-16.466 5.752-25.187 5.843h-893.763c-8.881-0.143-17.622-2.235-25.606-6.128s-15.016-9.491-20.599-16.399l-0.256 0.256c-12.078-13.975-18.725-31.829-18.725-50.3s6.647-36.326 18.725-50.3l447.841-496.223c5.576-6.534 12.502-11.782 20.302-15.382 7.8-3.598 16.288-5.462 24.878-5.462s17.079 1.864 24.879 5.462c7.8 3.599 14.726 8.847 20.302 15.382z" />
<glyph unicode="&#xe902;" glyph-name="edit" d="M999.643 702.951l-232.66 232.65c-7.731 7.736-16.918 13.872-27.026 18.058-10.105 4.186-20.937 6.341-31.877 6.341s-21.772-2.155-31.879-6.341c-10.107-4.186-19.29-10.323-27.025-18.058l-624.773-624.748c-7.761-7.717-13.914-16.896-18.102-27.007s-6.33-20.952-6.3-31.896v-232.647c0.025-22.089 8.81-43.257 24.427-58.873 15.617-15.623 36.791-24.408 58.877-24.43h232.658c10.944-0.029 21.786 2.114 31.896 6.298 10.111 4.191 19.29 10.342 27.007 18.103l624.778 624.75c15.594 15.634 24.357 36.816 24.357 58.901s-8.763 43.266-24.357 58.9zM833.031 536.351l-232.655 232.649 107.702 107.699 232.656-232.649-107.703-107.699z" />
<glyph unicode="&#xe903;" glyph-name="url-tip" d="M544.563 880.584c53.356 51.534 124.82 80.050 198.999 79.405s145.132-30.398 197.586-82.851c52.454-52.453 82.207-123.41 82.852-197.588s-27.868-145.64-79.406-198.998l-0.62-0.635-139.018-139.018c-0.005 0-0.005-0.005-0.010-0.005-28.677-28.687-63.191-50.872-101.197-65.050-38.011-14.182-78.623-20.019-119.086-17.121s-79.832 14.464-115.433 33.915c-35.601 19.451-66.602 46.331-90.901 78.817-16.937 22.641-12.312 54.728 10.331 71.665s54.73 12.312 71.667-10.332c15.504-20.726 35.284-37.878 58.001-50.289 22.712-12.406 47.831-19.789 73.651-21.637 25.815-1.848 51.727 1.879 75.981 10.921 24.253 9.047 46.275 23.204 64.573 41.513l138.696 138.695c32.701 34.012 50.785 79.479 50.376 126.669-0.41 47.329-19.395 92.602-52.864 126.070s-78.74 52.451-126.070 52.863c-47.212 0.41-92.703-17.694-126.72-50.423l-79.427-78.967c-20.055-19.937-52.472-19.842-72.408 0.211s-19.842 52.471 0.211 72.408l80.236 79.762zM320.262 621.158c38.009 14.178 78.623 20.017 119.087 17.119s79.829-14.464 115.433-33.914c35.599-19.45 66.601-46.33 90.9-78.815 16.937-22.643 12.308-54.73-10.332-71.667-22.646-16.935-54.728-12.312-71.665 10.332-15.508 20.727-35.287 37.877-58.001 50.287s-47.833 19.79-73.651 21.639c-25.818 1.849-51.731-1.876-75.983-10.922s-46.274-23.203-64.573-41.509l-138.697-138.696c-32.698-34.012-50.785-79.483-50.375-126.669 0.412-47.329 19.395-92.605 52.863-126.070 33.467-33.469 78.741-52.454 126.070-52.864 47.19-0.41 92.657 17.674 126.669 50.376l78.91 78.909c19.995 19.994 52.412 19.994 72.406 0 19.999-19.994 19.999-52.413 0-72.407l-79.877-79.867c-53.357-51.538-124.82-80.051-198.998-79.406s-145.135 30.397-197.588 82.852c-52.453 52.449-82.206 123.407-82.851 197.586s27.871 145.638 79.405 198.999l0.624 0.635 139.018 139.017c0.003 0.002-0.002-0.003 0 0 28.679 28.687 63.199 50.879 101.205 65.056z" />
<glyph unicode="&#xe904;" glyph-name="category-tip" d="M225.28 504.32c-122.88 0-225.28 102.4-225.28 230.4s102.4 225.28 225.28 225.28c122.88 0 225.28-102.4 225.28-225.28s-97.28-230.4-225.28-230.4zM225.28 847.36c-61.44 0-112.64-51.2-112.64-112.64s51.2-112.64 112.64-112.64c61.44 0 112.64 51.2 112.64 112.64s-46.080 112.64-112.64 112.64zM225.28-64c-122.88 0-225.28 102.4-225.28 225.28s102.4 225.28 225.28 225.28c122.88 0 225.28-102.4 225.28-225.28s-97.28-225.28-225.28-225.28zM225.28 279.040c-61.44 0-112.64-51.2-112.64-112.64s51.2-112.64 112.64-112.64c61.44 0 112.64 51.2 112.64 112.64s-46.080 112.64-112.64 112.64zM798.72 504.32c-128 0-225.28 102.4-225.28 225.28s102.4 225.28 225.28 225.28c122.88 0 225.28-97.28 225.28-220.16s-102.4-230.4-225.28-230.4zM798.72 847.36c-61.44 0-112.64-51.2-112.64-112.64s51.2-112.64 112.64-112.64c61.44 0 112.64 51.2 112.64 112.64s-51.2 112.64-112.64 112.64zM798.72-64c-128 0-225.28 102.4-225.28 225.28s102.4 225.28 225.28 225.28c122.88 0 225.28-102.4 225.28-225.28s-102.4-225.28-225.28-225.28zM798.72 279.040c-61.44 0-112.64-51.2-112.64-112.64s51.2-112.64 112.64-112.64c61.44 0 112.64 51.2 112.64 112.64s-51.2 112.64-112.64 112.64z" />
<glyph unicode="&#xe905;" glyph-name="lock-lesson" horiz-adv-x="832" d="M665.6 601.6v102.4c0 143.36-112.64 256-256 256s-256-112.64-256-256v-102.4c-87.040 0-153.6-66.56-153.6-153.6v-358.4c0-87.040 66.56-153.6 153.6-153.6h512c87.040 0 153.6 66.56 153.6 153.6v358.4c0 87.040-66.56 153.6-153.6 153.6zM256 704c0 87.040 66.56 153.6 153.6 153.6s153.6-66.56 153.6-153.6v-102.4h-307.2v102.4zM465.92 268.8l-5.12-5.12v-71.68c0-30.72-20.48-51.2-51.2-51.2s-51.2 20.48-51.2 51.2v71.68c-30.72 30.72-35.84 76.8-5.12 107.52s76.8 35.84 107.52 5.12c30.72-25.6 35.84-76.8 5.12-107.52z" />
<glyph unicode="&#xe906;" glyph-name="upload-image" d="M863.33 949.551h-702.171c-83.063-0.092-150.374-67.402-150.465-150.465v-702.171c0.092-83.063 67.402-150.373 150.465-150.465h702.171c9.145 0.013 18.162 1.101 27.061 2.754 3.317 0.606 6.478 1.521 9.713 2.343 5.319 1.358 10.537 2.942 15.673 4.875 3.734 1.4 7.381 2.867 10.969 4.547 4.213 1.983 8.238 4.282 12.261 6.658 3.77 2.215 7.582 4.295 11.132 6.819 0.29 0.209 0.623 0.347 0.913 0.558 0.372 0.27 0.694 0.604 1.053 0.894 0.685 0.554 1.544 0.825 2.173 1.454 0.332 0.332 0.437 0.779 0.746 1.126 35.474 27.523 58.717 70.071 58.769 118.435v702.171c-0.092 83.063-67.402 150.373-150.465 150.465zM892.167 1.348c-9.358-2.899-19.032-4.738-28.837-4.744h-702.171c-55.371 0.071-100.24 44.939-100.31 100.31v236.964l188.719 188.717c34.306 34.189 89.807 34.189 124.115 0l170.77-170.755c0.094-0.098 0.119-0.23 0.217-0.326l349.531-349.531c-0.675-0.222-1.354-0.426-2.033-0.635zM963.64 96.914c-0.033-25.895-10.131-49.261-26.252-67.055l-339.473 339.439 52.941 52.939c34.67 33.207 89.349 33.207 124.017 0l188.767-188.767v-136.556zM963.64 304.391l-153.305 153.307c-53.854 53.779-141.086 53.779-194.938 0l-52.941-52.941-153.314 153.299c-53.89 53.779-141.147 53.779-195.036 0l-153.257-153.257v394.286c0.070 55.371 44.939 100.24 100.31 100.31h702.171c55.371-0.070 100.241-44.939 100.31-100.31v-494.694zM587.477 748.931c-41.549 0-75.233-33.683-75.233-75.233s33.683-75.233 75.233-75.233c41.533 0.046 75.187 33.7 75.233 75.233 0 41.549-33.681 75.233-75.233 75.233zM587.477 648.62c-13.849 0-25.078 11.228-25.078 25.078s11.228 25.078 25.078 25.078c13.841-0.027 25.050-11.237 25.078-25.078 0-13.849-11.228-25.078-25.078-25.078z" />
<glyph unicode="&#xe907;" glyph-name="title-tip" d="M716.8 755.2c0 13.579-5.396 26.602-14.996 36.204s-22.625 14.996-36.204 14.996h-614.4c-13.579 0-26.602-5.394-36.204-14.996s-14.996-22.625-14.996-36.204c0-13.579 5.394-26.602 14.996-36.204s22.625-14.996 36.204-14.996h256v-563.2c0-13.578 5.394-26.604 14.996-36.204s22.625-14.996 36.204-14.996c13.579 0 26.602 5.396 36.204 14.996s14.996 22.625 14.996 36.204v563.2h256c13.578 0 26.604 5.394 36.204 14.996s14.996 22.625 14.996 36.204zM972.8 499.2h-307.2c-13.578 0-26.604-5.394-36.204-14.996s-14.996-22.625-14.996-36.204c0-13.579 5.396-26.602 14.996-36.204s22.625-14.996 36.204-14.996h102.4v-256c0-13.578 5.396-26.604 14.996-36.204s22.625-14.996 36.204-14.996c13.578 0 26.604 5.396 36.204 14.996s14.996 22.625 14.996 36.204v256h102.4c13.578 0 26.604 5.394 36.204 14.996s14.996 22.625 14.996 36.204c0 13.579-5.396 26.602-14.996 36.204s-22.625 14.996-36.204 14.996z" />
<glyph unicode="&#xe908;" glyph-name="search" d="M1007.181 33.581l-193.363 192.787c62.387 79.482 96.237 177.628 96.109 278.668 0 89.983-26.682 177.946-76.672 252.765s-121.050 133.132-204.182 167.567c-83.134 34.435-174.612 43.445-262.867 25.89s-169.322-60.886-232.949-124.514c-63.628-63.628-106.959-144.695-124.514-232.949s-8.545-179.732 25.89-262.867c34.435-83.133 92.749-154.192 167.567-204.182s162.781-76.672 252.765-76.672c101.039-0.128 199.186 33.722 278.668 96.109l192.787-193.363c5.286-5.325 11.578-9.555 18.509-12.448 6.931-2.886 14.362-4.371 21.869-4.371 7.514 0 14.944 1.485 21.875 4.371 6.931 2.893 13.216 7.123 18.509 12.448 5.325 5.293 9.555 11.578 12.448 18.509 2.886 6.931 4.371 14.362 4.371 21.875 0 7.507-1.485 14.938-4.371 21.869-2.893 6.931-7.123 13.222-12.448 18.509zM113.741 505.036c0 67.487 20.012 133.459 57.507 189.573s90.786 99.85 153.136 125.676c62.351 25.826 130.959 32.584 197.15 19.418s126.991-45.665 174.709-93.386c47.725-47.721 80.224-108.521 93.389-174.712s6.406-134.799-19.418-197.149c-25.824-62.353-69.562-115.645-125.677-153.137-56.113-37.491-122.085-57.504-189.573-57.504-90.498 0-177.29 35.949-241.281 99.942-63.992 63.989-99.942 150.781-99.942 241.279z" />
<glyph unicode="&#xe909;" glyph-name="preview-tip" d="M870.4 960h-716.8c-40.737 0-79.806-16.183-108.612-44.988s-44.988-67.875-44.988-108.612v-716.8c0-40.738 16.183-79.804 44.988-108.612 28.806-28.803 67.875-44.988 108.612-44.988h716.8c8.42 0.119 16.816 0.973 25.088 2.56l15.36 3.584h6.144l18.944 7.168 6.656 3.584c5.12 3.072 10.752 5.632 15.872 9.216 6.838 5.029 13.335 10.502 19.456 16.384l3.584 4.608c5.029 5.092 9.648 10.57 13.824 16.384l4.608 6.656c3.578 5.7 6.662 11.696 9.216 17.92 1.405 2.458 2.606 5.023 3.584 7.68 2.56 6.144 4.096 12.8 6.144 19.456v7.68c2.901 10.007 4.619 20.315 5.12 30.72v716.8c0 40.737-16.185 79.806-44.988 108.612-28.809 28.806-67.874 44.988-108.612 44.988zM153.6 38.4c-13.579 0-26.602 5.393-36.204 14.996s-14.996 22.625-14.996 36.204v220.672l168.448 168.96c4.76 4.799 10.423 8.608 16.662 11.207s12.931 3.938 19.69 3.938c6.759 0 13.451-1.339 19.69-3.938s11.902-6.408 16.662-11.207l440.32-440.832h-630.272zM921.6 89.6c-0.046-6.315-1.263-12.561-3.584-18.432-1.172-2.497-2.537-4.892-4.096-7.168-1.371-2.167-2.913-4.221-4.608-6.144l-273.92 273.92 45.056 45.056c4.762 4.801 10.422 8.607 16.663 11.207s12.931 3.938 19.689 3.938c6.758 0 13.449-1.338 19.689-3.938s11.901-6.406 16.663-11.207l168.448-168.96v-118.272zM921.6 352.768l-96.256 95.232c-29.303 27.802-68.153 43.301-108.544 43.301s-79.241-15.499-108.544-43.301l-45.056-45.056-147.456 147.456c-29.301 27.802-68.152 43.301-108.544 43.301s-79.243-15.499-108.544-43.301l-96.256-95.232v351.232c0 13.579 5.394 26.602 14.996 36.204s22.625 14.996 36.204 14.996h716.8c13.579 0 26.601-5.394 36.204-14.996s14.996-22.625 14.996-36.204v-453.632zM588.8 755.2c-15.189 0-30.038-4.504-42.668-12.943s-22.473-20.433-28.286-34.467c-5.813-14.033-7.334-29.475-4.37-44.373s10.278-28.582 21.019-39.323c10.741-10.741 24.425-18.055 39.321-21.019 14.899-2.963 30.339-1.443 44.373 4.37s26.027 15.656 34.469 28.286c8.437 12.63 12.942 27.478 12.942 42.668 0 20.368-8.090 39.903-22.494 54.306s-33.94 22.494-54.306 22.494z" />
<glyph unicode="&#xe90a;" glyph-name="arrow-back" horiz-adv-x="1418" d="M1316.533 554.342h-971.569l233.015 232.001c19.077 19.077 29.794 44.952 29.794 71.931s-10.717 52.853-29.794 71.93c-19.077 19.077-44.951 29.795-71.93 29.795s-52.853-10.717-71.93-29.795l-405.244-405.243c-9.223-9.635-16.453-20.997-21.275-33.433-10.133-24.665-10.133-52.331 0-76.996 4.822-12.436 12.052-23.798 21.275-33.433l405.244-405.243c9.418-9.492 20.623-17.030 32.969-22.174s25.587-7.79 38.962-7.79c13.374 0 26.616 2.647 38.962 7.79s23.55 12.682 32.969 22.174c9.496 9.421 17.033 20.622 22.176 32.973 5.144 12.343 7.792 25.584 7.792 38.959s-2.648 26.616-7.792 38.959c-5.143 12.343-12.68 23.552-22.176 32.973l-233.015 231.999h971.569c26.868 0 52.641 10.674 71.641 29.673s29.672 44.768 29.672 71.638c0 26.869-10.673 52.638-29.672 71.637s-44.772 29.673-71.641 29.673z" />
<glyph unicode="&#xe90b;" d="M1024 448c0-282.77-229.23-512-512-512s-512 229.23-512 512c0 282.77 229.23 512 512 512s512-229.23 512-512z" />
<glyph unicode="&#xe90c;" d="M562.085 448.061l152.741 152.386c6.69 6.688 10.445 15.76 10.445 25.22s-3.755 18.531-10.445 25.22c-6.69 6.689-15.758 10.447-25.219 10.447s-18.534-3.758-25.219-10.447l-152.388-152.742-152.386 152.742c-6.689 6.689-15.761 10.447-25.22 10.447s-18.532-3.758-25.22-10.447c-6.689-6.689-10.447-15.76-10.447-25.22s3.758-18.532 10.447-25.22l152.741-152.386-152.741-152.387c-3.33-3.3-5.972-7.231-7.776-11.56s-2.732-8.971-2.732-13.659c0-4.688 0.928-9.335 2.732-13.659 1.803-4.329 4.446-8.26 7.776-11.56 3.302-3.334 7.231-5.973 11.559-7.777s8.971-2.731 13.661-2.731c4.689 0 9.332 0.927 13.661 2.731s8.257 4.443 11.559 7.777l152.386 152.739 152.388-152.739c3.3-3.334 7.231-5.973 11.56-7.777 4.324-1.803 8.971-2.731 13.659-2.731s9.33 0.927 13.659 2.731c4.329 1.803 8.26 4.443 11.56 7.777 3.328 3.3 5.973 7.231 7.777 11.56 1.803 4.324 2.731 8.971 2.731 13.659s-0.927 9.33-2.731 13.659c-1.803 4.329-4.449 8.26-7.777 11.56l-152.741 152.387z" />
<glyph unicode="&#xe90d;" glyph-name="trash" horiz-adv-x="964" d="M915.576 767.181h-240.941v80.474c-1.132 30.849-14.444 59.991-37.027 81.038s-52.591 32.281-83.444 31.24h-144.565c-30.853 1.041-60.859-10.193-83.442-31.24s-35.898-50.189-37.029-81.038v-80.474h-240.941c-12.78 0-25.037-5.077-34.074-14.114s-14.114-21.294-14.114-34.074c0-12.781 5.077-25.037 14.114-34.075s21.294-14.114 34.074-14.114h48.188v-530.071c0-38.34 15.231-75.113 42.342-102.225 27.111-27.106 63.882-42.339 102.223-42.339h481.882c38.34 0 75.113 15.234 102.225 42.339 27.106 27.112 42.339 63.886 42.339 102.225v530.071h48.188c12.782 0 25.040 5.077 34.075 14.114s14.113 21.294 14.113 34.075c0 12.78-5.078 25.037-14.113 34.074s-21.293 14.114-34.075 14.114zM385.506 285.298c0-12.782-5.077-25.040-14.114-34.075s-21.294-14.113-34.075-14.113c-12.78 0-25.037 5.078-34.075 14.113s-14.114 21.293-14.114 34.075v192.753c0 12.78 5.077 25.037 14.114 34.074s21.294 14.114 34.075 14.114c12.78 0 25.037-5.077 34.075-14.114s14.114-21.294 14.114-34.074v-192.753zM385.506 847.655c0 7.71 10.12 15.902 24.094 15.902h144.565c13.975 0 24.094-8.192 24.094-15.902v-80.474h-192.753v80.474zM674.635 285.298c0-12.782-5.078-25.040-14.113-34.075s-21.293-14.113-34.075-14.113c-12.782 0-25.037 5.078-34.074 14.113s-14.114 21.293-14.114 34.075v192.753c0 12.78 5.077 25.037 14.114 34.074s21.292 14.114 34.074 14.114c12.782 0 25.040-5.077 34.075-14.114s14.113-21.294 14.113-34.074v-192.753z" />
<glyph unicode="&#xe90e;" horiz-adv-x="1178" d="M0.006-12.8c-0.104-6.543 1.109-13.041 3.565-19.108s6.107-11.576 10.735-16.205c4.628-4.628 10.138-8.279 16.205-10.734 6.066-2.458 12.564-3.671 19.108-3.566l737.586-1.587c6.625-0.133 13.212 1.047 19.377 3.474 6.167 2.424 11.791 6.047 16.553 10.657 4.759 4.608 8.558 10.115 11.18 16.2 2.621 6.088 4.012 12.631 4.091 19.256l1.613 921.6c0.133 6.625-1.047 13.21-3.471 19.376-2.427 6.166-6.049 11.791-10.657 16.551-4.611 4.76-10.117 8.56-16.202 11.181s-12.631 4.012-19.256 4.092h-270.438l-299.186 1.613-220.8-220.8v-752z" />
<glyph unicode="&#xe90f;" horiz-adv-x="1178" d="M172.8 739.187h-172.8l220.8 219.213-1.587-172.8c-0.007-12.307-4.899-24.109-13.602-32.811s-20.504-13.595-32.811-13.602z" />
<glyph unicode="&#xe910;" horiz-adv-x="1178" d="M520 958.4v-539.213h107.213v539.213h-107.213z" />
<glyph unicode="&#xe911;" horiz-adv-x="1178" d="M510.986 333.1h123.213v134.4h-123.213v-134.4z" />
<glyph unicode="&#xe912;" horiz-adv-x="1178" d="M472 270.392c0-26.524 10.537-51.96 29.292-70.715s44.191-29.292 70.715-29.292c26.524 0 51.96 10.537 70.715 29.292s29.292 44.191 29.292 70.715c0.061 15.37-3.361 30.554-10.012 44.408-6.651 13.857-16.358 26.025-28.388 35.592-17.687 12.744-39.002 19.474-60.8 19.2-22.052 0.233-43.515-7.114-60.8-20.813-12.337-9.024-22.385-20.818-29.332-34.432-6.95-13.614-10.609-28.669-10.68-43.955zM516.8 270.392c0.312 14.643 6.351 28.585 16.819 38.83 10.468 10.248 24.532 15.985 39.181 15.985s28.713-5.737 39.181-15.985c10.468-10.245 16.507-24.187 16.819-38.83 0.049-7.368-1.367-14.671-4.165-21.486-2.796-6.815-6.917-13.007-12.127-18.22-5.207-5.21-11.397-9.334-18.212-12.134-6.815-2.798-14.116-4.216-21.484-4.173-7.442-0.32-14.866 0.911-21.806 3.612-6.94 2.703-13.243 6.817-18.509 12.083-5.268 5.266-9.382 11.571-12.083 18.511-2.703 6.94-3.935 14.364-3.615 21.806z" />
<glyph unicode="&#xe913;" horiz-adv-x="1178" d="M533.138 467.799h52.813v19.2h-52.813v-19.2z" />
<glyph unicode="&#xe914;" horiz-adv-x="1178" d="M560.763 495.099h52.813v19.2h-52.813v-19.2z" />
<glyph unicode="&#xe915;" horiz-adv-x="1178" d="M585.388 487.099h27.213v35.2h-27.213v-35.2z" />
<glyph unicode="&#xe916;" horiz-adv-x="1178" d="M533.138 522.399h52.813v19.2h-52.813v-19.2z" />
<glyph unicode="&#xe917;" horiz-adv-x="1178" d="M560.788 549.701h52.813v19.2h-52.813v-19.2z" />
<glyph unicode="&#xe918;" horiz-adv-x="1178" d="M585.388 541.701h27.213v35.2h-27.213v-35.2z" />
<glyph unicode="&#xe919;" horiz-adv-x="1178" d="M533.138 576.95h52.813v19.2h-52.813v-19.2z" />
<glyph unicode="&#xe91a;" horiz-adv-x="1178" d="M560.788 604.301h52.813v19.2h-52.813v-19.2z" />
<glyph unicode="&#xe91b;" horiz-adv-x="1178" d="M585.388 596.301h27.213v35.2h-27.213v-35.2z" />
<glyph unicode="&#xe91c;" horiz-adv-x="1178" d="M533.138 631.601h52.813v19.2h-52.813v-19.2z" />
<glyph unicode="&#xe91d;" horiz-adv-x="1178" d="M560.788 658.9h52.813v19.2h-52.813v-19.2z" />
<glyph unicode="&#xe91e;" horiz-adv-x="1178" d="M585.388 650.9h27.213v35.2h-27.213v-35.2z" />
<glyph unicode="&#xe91f;" horiz-adv-x="1178" d="M533.138 686.2h52.813v19.2h-52.813v-19.2z" />
<glyph unicode="&#xe920;" horiz-adv-x="1178" d="M560.788 713.45h52.813v19.2h-52.813v-19.2z" />
<glyph unicode="&#xe921;" horiz-adv-x="1178" d="M585.388 705.45h27.213v35.2h-27.213v-35.2z" />
<glyph unicode="&#xe922;" horiz-adv-x="1178" d="M533.138 740.75h52.813v19.2h-52.813v-19.2z" />
<glyph unicode="&#xe923;" horiz-adv-x="1178" d="M560.788 768.050h52.813v19.2h-52.813v-19.2z" />
<glyph unicode="&#xe924;" horiz-adv-x="1178" d="M585.362 760.050h27.213v35.2h-27.213v-35.2z" />
<glyph unicode="&#xe925;" horiz-adv-x="1178" d="M533.138 795.3h52.813v19.2h-52.813v-19.2z" />
<glyph unicode="&#xe926;" horiz-adv-x="1178" d="M560.788 822.6h52.813v19.2h-52.813v-19.2z" />
<glyph unicode="&#xe927;" horiz-adv-x="1178" d="M585.362 814.6h27.213v35.2h-27.213v-35.2z" />
<glyph unicode="&#xe928;" horiz-adv-x="1178" d="M533.138 849.9h52.813v19.2h-52.813v-19.2z" />
<glyph unicode="&#xe929;" horiz-adv-x="1178" d="M560.788 877.2h52.813v19.2h-52.813v-19.2z" />
<glyph unicode="&#xe92a;" horiz-adv-x="1178" d="M585.362 869.2h27.213v35.2h-27.213v-35.2z" />
<glyph unicode="&#xe92b;" horiz-adv-x="1178" d="M533.138 904.5h52.813v19.2h-52.813v-19.2z" />
<glyph unicode="&#xe92c;" horiz-adv-x="1178" d="M560.763 931.85h52.813v19.2h-52.813v-19.2z" />
<glyph unicode="&#xe92d;" horiz-adv-x="1178" d="M614.413 958.4h-27.213v-35.2h27.213v35.2z" />
<glyph unicode="&#xe92e;" horiz-adv-x="1178" d="M1121.521 960h-780.198c-12.928 0-25.326-5.136-34.47-14.278-9.142-9.142-14.277-21.541-14.277-34.47v-207.236l438.858-128.018 438.861 127.992v207.262c0 6.404-1.262 12.745-3.715 18.661-2.45 5.916-6.044 11.291-10.573 15.818s-9.907 8.117-15.823 10.566c-5.916 2.448-12.26 3.707-18.662 3.704v0z" />
<glyph unicode="&#xe92f;" horiz-adv-x="1178" d="M1170.294 704h-877.719v-255.985l438.858-128.018 438.861 127.992v256.010z" />
<glyph unicode="&#xe930;" horiz-adv-x="1178" d="M1170.294 448h-877.719v-255.985l438.858-128.018 438.861 127.992v256.010z" />
<glyph unicode="&#xe931;" horiz-adv-x="1178" d="M1170.294 192h-877.719v-207.237c0-12.928 5.135-25.326 14.277-34.47 9.144-9.142 21.542-14.277 34.47-14.277h780.198c6.403-0.003 12.746 1.254 18.662 3.704 5.916 2.447 11.295 6.039 15.823 10.565s8.123 9.902 10.573 15.818c2.452 5.916 3.715 12.257 3.715 18.66v207.237z" />
<glyph unicode="&#xe932;" horiz-adv-x="1178" d="M609.526 777.15h-316.951v-694.843h316.951c12.918 0.038 25.293 5.187 34.427 14.321s14.282 21.512 14.321 34.427v597.348c-0.038 12.917-5.187 25.293-14.321 34.427s-21.509 14.282-34.427 14.322v0z" />
<glyph unicode="&#xe933;" horiz-adv-x="1178" d="M572.946 740.65h-280.371v-694.844h280.371c12.92 0.033 25.303 5.179 34.442 14.313s14.292 21.514 14.331 34.435v597.348c-0.038 12.921-5.192 25.302-14.331 34.436s-21.522 14.28-34.442 14.313v0z" />
<glyph unicode="&#xe934;" horiz-adv-x="1178" d="M572.946 740.65h-280.371v-621.684h280.371c12.92 0.033 25.303 5.179 34.442 14.313s14.292 21.514 14.331 34.435v524.188c-0.038 12.921-5.192 25.302-14.331 34.436s-21.522 14.28-34.442 14.313v0z" />
<glyph unicode="&#xe935;" horiz-adv-x="1178" d="M536.392 740.65h-243.817v-621.684h243.817c12.915 0.041 25.293 5.189 34.427 14.321 9.134 9.134 14.282 21.512 14.321 34.427v524.188c-0.038 12.917-5.187 25.293-14.321 34.427s-21.512 14.282-34.427 14.322v0z" />
<glyph unicode="&#xe936;" horiz-adv-x="1178" d="M48.748 740.65h487.633c12.928 0 25.329-5.136 34.47-14.278s14.277-21.541 14.277-34.47v-487.631c0-12.931-5.135-25.329-14.277-34.47s-21.542-14.28-34.47-14.28h-487.633c-12.929 0-25.328 5.138-34.47 14.28s-14.278 21.54-14.278 34.47v487.631c0 12.929 5.136 25.328 14.278 34.47s21.541 14.278 34.47 14.278v0z" />
<glyph unicode="&#xe937;" horiz-adv-x="1178" d="M437.010 265.149h-65.805l-76.8 252.344-80.466-252.344h-65.829l-73.135 365.701h65.829l51.192-255.985 76.802 248.678h54.856l73.134-248.678 51.192 255.985h62.113l-73.083-365.701z" />
<glyph unicode="&#xe938;" horiz-adv-x="1178" d="M0 739.2v-752c0-27.2 22.4-51.2 51.2-51.2h736c27.2 0 51.2 22.4 51.2 51.2l1.6 921.6c0 27.2-22.4 51.2-51.2 51.2h-568l-220.8-220.8z" />
<glyph unicode="&#xe939;" horiz-adv-x="1178" d="M174.4 739.2h-172.8l219.2 220.8-1.6-172.8c1.6-27.2-19.2-48-44.8-48z" />
<glyph unicode="&#xe93a;" horiz-adv-x="1178" d="M419.2 182.4c120.177 0 217.6 97.423 217.6 217.6s-97.423 217.6-217.6 217.6c-120.177 0-217.6-97.423-217.6-217.6s97.423-217.6 217.6-217.6z" />
<glyph unicode="&#xe93b;" horiz-adv-x="1178" d="M531.2 400l-172.8 131.2v-262.4l172.8 131.2z" />
<glyph unicode="&#xe93c;" glyph-name="unknown-file" horiz-adv-x="1178" d="M787.738-64h-708.966c-20.877 0.061-40.881 8.384-55.641 23.148-14.76 14.766-23.076 34.772-23.13 55.649v866.432c0.054 20.875 8.371 40.879 23.131 55.64s34.765 23.077 55.64 23.131h472.653c1.308 0.002 2.616-0.066 3.917-0.205 0.947 0 1.792-0.23 2.56-0.384h1.075c1.178-0.23 2.304-0.538 3.251-0.819h0.333c0.998-0.282 1.946-0.666 2.867-1.024h0.563c0.998-0.384 1.971-0.896 2.842-1.306l0.307-0.154h0.23c0.768-0.435 1.562-0.896 2.381-1.434l1.69-1.331c0.614-0.41 1.229-0.896 1.894-1.408l0.538-0.41 0.64-0.486c0.435-0.358 0.87-0.768 1.28-1.152l0.307-0.282 0.512-0.435 0.742-0.691 275.277-275.379c3.763-3.663 6.758-8.041 8.806-12.877s3.11-10.033 3.123-15.283c0.010-0.128 0.010-0.256 0-0.384 0 0 0-0.256 0-0.384v-629.376c-0.054-20.887-8.376-40.901-23.148-55.667s-34.788-23.084-55.675-23.13zM427.52 343.245c-4.454 0.125-8.886-0.655-13.028-2.296-4.14-1.641-7.905-4.109-11.062-7.252-3.116-3.082-5.568-6.766-7.212-10.829-1.641-4.063-2.437-8.42-2.337-12.8-0.113-4.485 0.673-8.95 2.312-13.128 1.641-4.175 4.101-7.982 7.237-11.192 6.454-6.264 15.094-9.769 24.090-9.769s17.636 3.505 24.090 9.769c3.136 3.21 5.596 7.017 7.237 11.192 1.638 4.178 2.424 8.643 2.312 13.128 0.1 4.38-0.696 8.737-2.337 12.8-1.644 4.063-4.096 7.747-7.212 10.829-3.154 3.149-6.917 5.619-11.059 7.26-4.142 1.644-8.576 2.422-13.030 2.289zM432.973 564.582c11.648 0.671 23.109-3.151 32.026-10.675 3.74-3.325 6.717-7.419 8.732-12.001 2.015-4.58 3.018-9.541 2.941-14.546 0.125-8.023-2.266-15.882-6.835-22.477-6.71-9.011-14.149-17.454-22.246-25.242l-7.27-6.81c-11.901-11.569-22.228-24.653-30.72-38.912-7.711-14.108-11.553-30.006-11.136-46.080v-9.088h56.806v5.453c-0.159 11.517 3.082 22.828 9.318 32.512 7.795 11.374 16.865 21.819 27.034 31.13 11.366 11.366 19.994 20.48 25.6 26.803 6.057 7.078 11.108 14.961 15.002 23.424 4.475 9.615 6.733 20.114 6.605 30.72-0.008 15.703-4.329 31.104-12.493 44.518-8.771 14.336-21.251 26.038-36.122 33.869-17.244 8.973-36.477 13.427-55.91 12.954-25.884 0.753-51.226-7.519-71.68-23.398-19.177-15.281-31.7-37.389-34.944-61.696l55.45-13.645c1.69 12.175 7.749 23.322 17.050 31.36 9.144 7.808 20.823 12.012 32.845 11.827h-0.051zM551.424 864.922v-219.981h219.981l-219.981 219.981z" />
<glyph unicode="&#xe93d;" glyph-name="settings" horiz-adv-x="964" d="M885.019 405.42c-7.861 8.951-12.198 20.458-12.198 32.373s4.337 23.421 12.198 32.372l62.783 70.631c6.921 7.717 11.216 17.427 12.27 27.737 1.060 10.31-1.175 20.69-6.385 29.651l-98.099 169.711c-5.15 8.95-12.999 16.045-22.426 20.273-9.421 4.228-19.944 5.372-30.057 3.271l-92.208-18.639c-11.734-2.424-23.95-0.47-34.34 5.493s-18.245 15.525-22.070 26.879l-29.919 89.76c-3.289 9.742-9.559 18.204-17.92 24.189s-18.393 9.191-28.677 9.164h-196.197c-10.696 0.558-21.281-2.4-30.138-8.422s-15.499-14.779-18.911-24.931l-27.468-89.76c-3.826-11.354-11.675-20.916-22.067-26.879s-22.606-7.918-34.34-5.493l-94.665 18.639c-9.586 1.355-19.36-0.158-28.088-4.347s-16.021-10.869-20.961-19.196l-98.098-169.711c-5.339-8.861-7.739-19.183-6.858-29.49s4.998-20.072 11.763-27.898l62.293-70.631c7.864-8.951 12.2-20.458 12.2-32.372s-4.336-23.422-12.2-32.373l-62.293-70.632c-6.765-7.825-10.882-17.589-11.763-27.895-0.881-10.312 1.519-20.631 6.858-29.491l98.098-169.713c5.156-8.951 13.004-16.047 22.428-20.269 9.424-4.229 19.942-5.373 30.055-3.271l92.213 18.637c11.733 2.421 23.948 0.47 34.34-5.493s18.241-15.523 22.067-26.877l29.92-89.763c3.413-10.156 10.055-18.908 18.912-24.931s19.442-8.981 30.138-8.421h196.197c10.283-0.030 20.314 3.18 28.677 9.162 8.361 5.987 14.631 14.45 17.92 24.19l29.919 89.763c3.825 11.354 11.68 20.914 22.070 26.877s22.606 7.915 34.34 5.493l92.208-18.637c10.114-2.102 20.637-0.958 30.057 3.271 9.427 4.222 17.275 11.318 22.426 20.269l98.099 169.713c5.21 8.957 7.445 19.342 6.391 29.648-1.060 10.312-5.355 20.022-12.276 27.738l-66.217 70.632zM811.936 339.691l39.243-44.14-62.783-108.893-57.88 11.776c-35.328 7.222-72.078 1.217-103.267-16.866-31.196-18.083-54.665-46.99-65.954-81.233l-18.639-54.935h-125.566l-17.658 55.916c-11.288 34.244-34.757 63.151-65.952 81.233s-67.942 24.082-103.269 16.866l-57.878-11.776-63.764 108.399 39.239 44.146c24.13 26.978 37.471 61.903 37.471 98.098s-13.34 71.12-37.471 98.099l-39.239 44.145 62.783 107.909 57.878-11.772c35.327-7.221 72.075-1.22 103.269 16.863s54.663 46.991 65.952 81.235l18.639 55.426h125.566l18.639-55.916c11.289-34.244 34.758-63.152 65.954-81.236 31.19-18.083 67.939-24.084 103.267-16.863l57.88 11.772 62.783-108.89-39.243-44.145c-23.859-26.916-37.033-61.639-37.033-97.608s13.173-70.692 37.033-97.611zM479.872 633.99c-38.804 0-76.737-11.507-109.002-33.065s-57.411-52.201-72.261-88.051c-14.85-35.851-18.735-75.3-11.165-113.358s26.257-73.017 53.695-100.454c27.439-27.443 62.398-46.128 100.456-53.7 38.059-7.566 77.508-3.68 113.358 11.168s66.494 39.996 88.052 72.258c21.558 32.267 33.063 70.2 33.063 109.004 0 52.035-20.673 101.938-57.464 138.732-36.794 36.795-86.697 57.465-138.732 57.465zM479.872 339.691c-19.402 0-38.369 5.758-54.501 16.535-16.132 10.78-28.706 26.101-36.13 44.026s-9.368 37.649-5.583 56.679c3.785 19.029 13.128 36.509 26.847 50.228s31.199 23.063 50.228 26.848c19.029 3.785 38.754 1.842 56.679-5.583s33.246-19.999 44.025-36.131c10.779-16.132 16.532-35.099 16.532-54.5 0-26.017-10.335-50.969-28.732-69.366-18.397-18.399-43.349-28.735-69.366-28.735z" />
<glyph unicode="&#xe93e;" glyph-name="prerequisites" horiz-adv-x="964" d="M433.156 125.621l61.661 61.175c9.071 9.071 21.374 14.167 34.203 14.167s25.131-5.096 34.202-14.167c9.071-9.071 14.167-21.371 14.167-34.202s-5.096-25.13-14.167-34.202l-68.405-68.403c-29.386-29.19-64.645-51.784-103.435-66.295-38.791-14.517-80.226-20.606-121.552-17.872s-81.597 14.228-118.138 33.726c-36.541 19.492-68.516 46.538-93.801 79.342-42.601 57.723-62.81 128.946-56.874 200.439s37.613 138.407 89.15 188.315l61.18 61.661c4.478 4.515 9.806 8.099 15.676 10.545s12.167 3.704 18.526 3.704c6.36 0 12.656-1.259 18.526-3.704s11.198-6.030 15.677-10.545c4.515-4.478 8.099-9.806 10.545-15.676s3.704-12.167 3.704-18.527c0-6.359-1.259-12.655-3.704-18.526s-6.030-11.198-10.545-15.676l-68.405-68.887c-19.154-18.957-34.119-41.721-43.928-66.821s-14.243-51.977-13.017-78.902c1.226-26.919 8.085-53.284 20.134-77.39s29.021-45.411 49.819-62.548c39.349-30.371 88.5-45.189 138.077-41.635s96.111 25.233 130.727 60.904zM648.337 927.317c72.072 6.028 143.872-14.386 201.993-57.43 32.726-25.286 59.705-57.236 79.149-93.734s30.913-76.711 33.647-117.976c2.735-41.265-3.331-82.639-17.794-121.383s-36.99-73.973-66.096-103.353l-68.409-68.405c-4.475-4.515-9.806-8.1-15.673-10.545-5.873-2.446-12.168-3.704-18.528-3.704-6.355 0-12.655 1.259-18.522 3.704-5.873 2.446-11.198 6.030-15.679 10.545-4.512 4.478-8.096 9.806-10.541 15.677s-3.704 12.166-3.704 18.526c0 6.359 1.259 12.655 3.704 18.526s6.030 11.198 10.541 15.676l68.403 68.887c19.317 18.967 34.418 41.791 44.321 66.984s14.39 52.191 13.161 79.233c-1.229 27.043-8.138 53.523-20.281 77.716s-29.25 45.555-50.206 62.695c-39.189 30.539-88.305 45.471-137.861 41.912s-96.036-25.356-130.461-61.181l-62.624-63.107c-4.478-4.515-9.806-8.099-15.677-10.544s-12.166-3.705-18.526-3.705c-6.359 0-12.656 1.26-18.526 3.705s-11.198 6.030-15.677 10.544c-4.912 5.47-8.621 11.91-10.888 18.904s-3.038 14.386-2.265 21.697c0.772 7.311 3.071 14.379 6.747 20.745s8.649 11.89 14.596 16.213l52.026 52.99c50.163 52.101 117.576 84.159 189.649 90.187zM350.837 384.789l192.691 192.691c9.071 9.071 21.374 14.167 34.203 14.167s25.134-5.097 34.205-14.167c9.071-9.071 14.167-21.374 14.167-34.203s-5.096-25.131-14.167-34.203l-192.693-192.688c-4.478-4.518-9.806-8.102-15.677-10.547s-12.166-3.704-18.526-3.704c-6.36 0-12.656 1.259-18.526 3.704s-11.198 6.030-15.677 10.547c-4.515 4.475-8.099 9.806-10.544 15.673-2.446 5.873-3.705 12.168-3.705 18.528s1.259 12.655 3.705 18.525c2.446 5.871 6.029 11.198 10.544 15.677z" />
<glyph unicode="&#xe93f;" glyph-name="course-materials" horiz-adv-x="843" d="M789.51 723.983c10.041-10.039 18.649-23.664 25.817-40.874 7.174-17.21 10.758-32.986 10.758-47.327v-619.56c0-14.342-5.018-26.534-15.059-36.575s-22.233-15.059-36.575-15.059h-722.821c-14.342 0-26.532 5.018-36.571 15.059s-15.059 22.233-15.059 36.575v860.502c0 14.341 5.020 26.532 15.059 36.571s22.23 15.059 36.571 15.059h481.882c14.342 0 30.118-3.585 47.328-10.756s30.837-15.776 40.872-25.815l167.797-167.799zM550.723 855.21v-202.218h202.218c-3.584 10.398-7.529 17.748-11.83 22.050l-168.338 168.336c-4.303 4.303-11.653 8.247-22.050 11.832zM757.242 33.431v550.72h-223.73c-14.341 0-26.532 5.020-36.571 15.059s-15.059 22.23-15.059 36.572v223.731h-413.042v-826.082h688.401zM206.521 498.101c0 5.020 1.614 9.143 4.841 12.37s7.35 4.841 12.37 4.841h378.622c5.018 0 9.144-1.614 12.372-4.841 3.223-3.227 4.837-7.35 4.837-12.37v-34.42c0-5.019-1.614-9.143-4.837-12.369-3.229-3.227-7.355-4.841-12.372-4.841h-378.622c-5.020 0-9.143 1.613-12.37 4.841s-4.841 7.35-4.841 12.369v34.42zM602.353 377.63c5.018 0 9.144-1.613 12.372-4.841 3.223-3.227 4.837-7.35 4.837-12.369v-34.421c0-5.018-1.614-9.144-4.837-12.366-3.229-3.229-7.355-4.843-12.372-4.843h-378.622c-5.020 0-9.143 1.614-12.37 4.843-3.227 3.223-4.841 7.349-4.841 12.366v34.421c0 5.019 1.614 9.143 4.841 12.369s7.35 4.841 12.37 4.841h378.622zM602.353 239.947c5.018 0 9.144-1.608 12.372-4.837 3.223-3.229 4.837-7.349 4.837-12.372v-34.418c0-5.018-1.614-9.144-4.837-12.372-3.229-3.223-7.355-4.837-12.372-4.837h-378.622c-5.020 0-9.143 1.614-12.37 4.837-3.227 3.229-4.841 7.355-4.841 12.372v34.418c0 5.024 1.614 9.144 4.841 12.372s7.35 4.837 12.37 4.837h378.622z" />
<glyph unicode="&#xe940;" glyph-name="certificate" horiz-adv-x="1161" d="M927.717-12.097h-702.169c-51.73 0-101.341 20.548-137.919 57.132-36.579 36.577-57.128 86.187-57.128 137.919v546.131c0 51.73 20.55 101.341 57.128 137.919s86.189 57.128 137.919 57.128h702.169c51.732 0 101.342-20.55 137.919-57.128 36.584-36.579 57.132-86.189 57.132-137.919v-546.131c0-51.732-20.548-101.342-57.132-137.919-36.577-36.584-86.187-57.132-137.919-57.132zM225.548 846.114c-31.038 0-60.804-12.33-82.751-34.277s-34.277-51.714-34.277-82.751v-546.131c0-31.041 12.33-60.805 34.277-82.753s51.713-34.277 82.751-34.277h702.169c31.041 0 60.805 12.329 82.753 34.277s34.277 51.712 34.277 82.753v546.131c0 31.037-12.329 60.804-34.277 82.751s-51.712 34.277-82.753 34.277h-702.169zM810.721 456h-468.117c-10.346 0-20.268 4.11-27.584 11.426s-11.425 17.237-11.425 27.584c0 10.346 4.11 20.268 11.425 27.584s17.238 11.425 27.584 11.425h468.117c10.342 0 20.268-4.11 27.58-11.425 7.318-7.316 11.428-17.238 11.428-27.584s-4.11-20.268-11.428-27.584c-7.311-7.316-17.237-11.426-27.58-11.426zM537.653 221.942h-312.076c-10.346 0-20.268 4.11-27.584 11.428-7.316 7.311-11.426 17.237-11.426 27.58 0 10.349 4.11 20.271 11.426 27.587s17.238 11.425 27.584 11.425h312.076c10.346 0 20.268-4.11 27.584-11.425s11.426-17.238 11.426-27.587c0-10.342-4.11-20.268-11.426-27.58-7.316-7.318-17.238-11.428-27.584-11.428zM693.692 651.048h-234.058c-10.346 0-20.268 4.11-27.584 11.426s-11.426 17.238-11.426 27.584c0 10.346 4.11 20.268 11.426 27.584s17.238 11.426 27.584 11.426h234.058c10.342 0 20.268-4.11 27.58-11.426 7.318-7.315 11.428-17.238 11.428-27.584s-4.11-20.268-11.428-27.584c-7.311-7.316-17.237-11.426-27.58-11.426zM849.729 143.927c-23.149 0-45.773 6.861-65.017 19.722-19.244 12.855-34.243 31.136-43.104 52.518-8.854 21.388-11.175 44.913-6.656 67.617 4.512 22.701 15.66 43.553 32.024 59.92 16.37 16.367 37.219 27.513 59.924 32.028 22.699 4.516 46.23 2.198 67.611-6.659 21.388-8.858 39.663-23.858 52.524-43.103 12.855-19.245 19.722-41.871 19.722-65.021 0-31.034-12.329-60.798-34.277-82.746s-51.712-34.277-82.753-34.277zM849.729 299.962c-7.714 0-15.258-2.288-21.675-6.574-6.41-4.286-11.414-10.379-14.363-17.508-2.956-7.127-3.727-14.971-2.225-22.535 1.509-7.571 5.222-14.52 10.677-19.975 5.461-5.455 12.411-9.175 19.975-10.677 7.571-1.509 15.415-0.73 22.542 2.219 7.127 2.956 13.216 7.953 17.504 14.37 4.287 6.41 6.574 13.954 6.574 21.668 0 10.349-4.11 20.271-11.421 27.587-7.318 7.315-17.244 11.425-27.587 11.425z" />
<glyph unicode="&#xe941;" glyph-name="access" horiz-adv-x="904" d="M163.5-35.412h562.196c31.949 0 62.59 12.692 85.185 35.286s35.286 53.236 35.286 85.185v321.255c0 31.951-12.692 62.593-35.286 85.186s-53.236 35.285-85.185 35.285h-441.726v160.628c0 42.601 16.923 83.457 47.046 113.581s70.98 47.047 113.581 47.047c42.601 0 83.457-16.924 113.581-47.047s47.047-70.98 47.047-113.581c0-10.65 4.229-20.864 11.758-28.396 7.535-7.531 17.745-11.762 28.401-11.762 10.65 0 20.859 4.231 28.395 11.762 7.529 7.531 11.758 17.745 11.758 28.396 0 63.902-25.383 125.186-70.572 170.371-45.182 45.185-106.466 70.57-170.368 70.57s-125.186-25.385-170.371-70.57c-45.185-45.186-70.57-106.469-70.57-170.371v-160.628h-40.156c-31.951 0-62.594-12.692-85.186-35.285s-35.285-53.235-35.285-85.186v-321.255c0-31.949 12.692-62.59 35.285-85.185s53.235-35.286 85.186-35.286zM123.343 406.314c0 10.65 4.231 20.864 11.762 28.396s17.745 11.762 28.396 11.762h562.196c10.65 0 20.866-4.231 28.395-11.762s11.764-17.745 11.764-28.396v-321.255c0-10.65-4.235-20.866-11.764-28.395s-17.745-11.764-28.395-11.764h-562.196c-10.651 0-20.864 4.235-28.396 11.764s-11.762 17.745-11.762 28.395v321.255zM404.422 216.853v-51.405c0-10.65 4.231-20.859 11.762-28.395 7.531-7.529 17.745-11.758 28.396-11.758s20.864 4.229 28.395 11.758c7.531 7.535 11.762 17.745 11.762 28.395v51.405c12.139 7.005 22.232 17.071 29.277 29.184 7.045 12.119 10.796 25.871 10.88 39.882 0 21.305-8.462 41.731-23.523 56.796-15.062 15.059-35.49 23.521-56.79 23.521s-41.729-8.462-56.79-23.521c-15.062-15.065-23.524-35.491-23.524-56.796 0.085-14.011 3.836-27.762 10.881-39.882 7.045-12.113 17.138-22.179 29.276-29.184z" />
<glyph unicode="&#xe942;" horiz-adv-x="1178" d="M658.245 960c-135.662-0.392-265.656-54.458-361.585-150.385s-149.993-225.922-150.385-361.584l648.613-136.643-136.643 648.612z" />
<glyph unicode="&#xe943;" horiz-adv-x="1178" d="M658.225 960c135.662-0.392 265.656-54.458 361.585-150.385s149.993-225.922 150.385-361.584l-255.997-173.975-255.972 173.975v511.969z" />
<glyph unicode="&#xe944;" horiz-adv-x="1178" d="M658.245-63.969c135.657 0.399 265.644 54.467 361.567 150.395 95.923 95.926 149.985 225.917 150.377 361.574h-1023.914c0.392-135.662 54.457-265.656 150.385-361.585 95.928-95.926 225.923-149.993 361.585-150.385z" />
<glyph unicode="&#xe945;" horiz-adv-x="1178" d="M609.526 777.15h-342.351c-83.587-98.491-126.582-225.089-120.265-354.115 6.316-129.024 61.471-250.816 154.277-340.675h308.339c12.923 0.033 25.308 5.179 34.447 14.316 9.139 9.134 14.29 21.517 14.331 34.437v597.285c-0.041 12.922-5.192 25.303-14.331 34.438s-21.524 14.281-34.447 14.314z" />
<glyph unicode="&#xe946;" horiz-adv-x="1178" d="M572.884 740.6h-333.707c-75.374-106.954-106.621-238.848-87.243-368.248 19.378-129.403 87.889-246.356 191.287-326.541h229.711c12.91 0.046 25.277 5.194 34.406 14.323 9.129 9.126 14.277 21.494 14.321 34.404v597.309c-0.038 12.922-5.189 25.304-14.331 34.439-9.139 9.135-21.522 14.281-34.445 14.314z" />
<glyph unicode="&#xe947;" horiz-adv-x="1178" d="M572.887 740.6h-333.733c-64.975-92.062-97.486-203.12-92.414-315.689 5.072-112.566 47.439-220.25 120.432-306.097h305.738c12.918 0.041 25.295 5.189 34.429 14.323s14.285 21.512 14.323 34.429v524.28c-0.038 12.922-5.192 25.304-14.331 34.439s-21.524 14.281-34.445 14.314z" />
<glyph unicode="&#xe948;" horiz-adv-x="1178" d="M536.302 740.6h-297.268c-64.962-92.073-97.455-203.136-92.365-315.704s47.475-220.247 120.483-306.081h269.174c12.918 0.041 25.295 5.189 34.429 14.323s14.285 21.512 14.323 34.429v524.28c-0.038 12.922-5.192 25.304-14.331 34.439s-21.524 14.281-34.445 14.314z" />
<glyph unicode="&#xe949;" horiz-adv-x="1178" d="M48.752 740.6h487.594c12.928 0 25.329-5.136 34.473-14.279 9.142-9.143 14.277-21.543 14.277-34.473v-487.593c0-12.931-5.135-25.329-14.277-34.473-9.144-9.142-21.545-14.28-34.473-14.28h-487.594c-12.93 0-25.33 5.138-34.473 14.28-9.143 9.144-14.279 21.542-14.279 34.473v487.593c0 12.93 5.136 25.33 14.279 34.473s21.543 14.279 34.473 14.279z" />
<glyph unicode="&#xe94a;" horiz-adv-x="1178" d="M292.431 631.004c36.009 2.427 71.708-8 100.749-29.43 11.909-10.627 21.245-23.823 27.302-38.592 6.054-14.769 8.671-30.72 7.652-46.648 0.387-20.687-5.676-40.98-17.341-58.066-11.802-18.918-28.815-34.025-48.998-43.5-23.119-10.737-48.387-16.041-73.871-15.508h-69.933v-134.067h-71.716v365.811h146.156zM217.941 459.656h61.682c19.538-1.426 38.922 4.344 54.5 16.225 6.198 3.986 11.187 9.587 14.436 16.2 3.249 6.615 4.628 13.99 3.994 21.33 0 40.445-23.557 60.667-70.674 60.667h-63.938v-114.422z" />
<glyph unicode="&#xe94b;" horiz-adv-x="1178" d="M839.974 908.8v-784h-838.399v614.4l220.8 220.8h568.012c13.299-0.419 25.91-5.998 35.167-15.555 9.254-9.557 14.428-22.341 14.42-35.645z" />
<glyph unicode="&#xe94c;" horiz-adv-x="1178" d="M176 739.2h-172.8l219.213 220.8-1.613-172.8c0.475-6.154-0.333-12.34-2.374-18.166s-5.269-11.164-9.481-15.676c-4.212-4.513-9.315-8.101-14.986-10.538s-11.787-3.67-17.959-3.619z" />
<glyph unicode="&#xe94d;" horiz-adv-x="1178" d="M502.4 511.977c-29.742 29.307-56.538 61.46-80 96 12.8 19.2 43.213 129.586-3.2 161.586s-70.4-27.213-70.4-27.213c-5.143-24.188-5.238-49.177-0.282-73.404 4.954-24.225 14.856-47.171 29.082-67.395l-55.987-123.187c-6.4 0-184.013-68.787-123.213-153.6 62.413-84.813 148.813 119.987 148.813 119.987 44.846 10.97 90.248 19.515 136.013 25.6 22.298-31.506 52.71-56.381 88.013-71.987 73.6-19.2 81.587 41.6 81.587 41.6 1.587 80-150.426 72.013-150.426 72.013zM228.813 353.564c-0.209-0.005-0.417 0.033-0.612 0.113s-0.37 0.195-0.518 0.343c-0.148 0.148-0.265 0.325-0.344 0.52s-0.117 0.402-0.114 0.612c-9.6 22.4 64 65.587 64 65.587s-40.013-76.698-62.413-67.174zM395.213 740.763c20.813-19.2 3.2-84.786 3.2-84.786s-24.013 65.586-3.2 84.863v-0.077zM376.013 492.777l28.8 70.4 44.8-54.4-73.6-16zM612.813 441.577c-12.8-20.787-65.587 23.987-70.4 28.8 8.013 0 76.8-4.813 70.4-28.8zM840.013 175.977v-188.8c-0.095-13.55-5.519-26.519-15.099-36.101-9.582-9.582-22.551-15.007-36.101-15.099h-737.613c-13.55 0.092-26.519 5.517-36.1 15.099s-15.006 22.551-15.1 36.101v188.8h840.013z" />
<glyph unicode="&#xe94e;" horiz-adv-x="1178" d="M840.013 176v-188.8c-0.095-13.55-5.519-26.519-15.099-36.101-9.582-9.58-22.551-15.004-36.101-15.099h-737.613c-13.55 0.095-26.519 5.519-36.1 15.099-9.582 9.582-15.006 22.551-15.1 36.101v188.8h840.013z" />
<glyph unicode="&#xe94f;" horiz-adv-x="1178" d="M355.2 92.78c0.092-5.678-0.998-11.315-3.203-16.55-2.204-5.238-5.471-9.956-9.597-13.862-10.88-7.14-23.805-10.511-36.787-9.6h-12.8v-46.413h-20.813v123.238h36.787c12.488 0.95 24.922-2.44 35.2-9.6 3.976-3.251 7.081-7.442 9.039-12.191 1.956-4.749 2.703-9.912 2.173-15.022zM294.4 68.767h11.213c7.764-0.489 15.514 1.167 22.4 4.787 2.673 2.063 4.797 4.749 6.19 7.826 1.393 3.075 2.010 6.444 1.797 9.812 0.307 2.988-0.115 6.003-1.231 8.788-1.114 2.788-2.888 5.261-5.169 7.212-6.292 3.643-13.535 5.309-20.787 4.787h-14.387v-43.213h-0.026zM481.587 68.767c0.614-8.548-0.643-17.129-3.679-25.144s-7.782-15.27-13.908-21.268c-6.753-5.88-14.63-10.33-23.155-13.079-8.522-2.752-17.513-3.745-26.432-2.921h-35.2v123.238h38.4c8.41 0.566 16.845-0.561 24.812-3.308s15.304-7.063 21.576-12.692c5.98-5.763 10.647-12.749 13.683-20.48 3.034-7.731 4.367-16.026 3.904-24.32v-0.026zM459.187 68.767c0 30.387-14.413 44.8-41.6 44.8h-17.587v-89.6h14.413c30.387-1.587 44.8 14.413 44.8 44.826l-0.026-0.026zM528 6.38h-20.787v123.213h70.4v-17.587h-49.613v-38.4h46.413v-17.587h-46.413v-49.638z" />
<glyph unicode="&#xe950;" horiz-adv-x="1178" d="M838.4 739.2v-752c0-27.2-22.4-51.2-51.2-51.2h-736c-27.2 0-51.2 22.4-51.2 51.2v921.6c0 27.2 22.4 51.2 49.6 51.2h568l220.8-220.8z" />
<glyph unicode="&#xe951;" horiz-adv-x="1178" d="M388.8 479.985c11.2 0 20.8 6.4 24 16 1.6 6.4 3.2 11.2 1.6 17.6 0 16 0 48 0 48 35.2 0 32-20.8 28.8-32-1.6-4.8 0-4.8 3.2-1.6 43.2 46.4-16 60.8-40 65.6-4.8 1.6-8-1.6-9.6-6.4v-52.8c-3.2 1.6-6.4 1.6-9.6 1.6-14.4 0-27.2-11.2-27.2-27.2 1.6-16 14.4-28.8 28.8-28.8zM129.6 462.385c-6.4 1.6-11.2-3.2-12.8-8 0-1.6 0-1.6 0-3.2v-72c-4.8 1.6-8 1.6-12.8 1.6-20.8 0-38.4-17.6-38.4-38.4s17.6-38.4 38.4-38.4c14.4 0 28.8 8 35.2 22.4 1.6 8 3.2 16 3.2 24 0 22.4 0 67.2 0 67.2 49.6 0 46.4-28.8 40-46.4-1.6-6.4-1.6-8 3.2-1.6 60.8 67.2-22.4 88-56 92.8zM705.6 473.585c-4.8 1.6-9.6-1.6-11.2-6.4 0-1.6 0-1.6 0-1.6v-62.4c-3.2 1.6-8 1.6-11.2 1.6-17.6 0-32-14.4-33.6-32 0-17.6 14.4-32 32-33.6 12.8 0 24 8 30.4 19.2 1.6 6.4 3.2 14.4 3.2 20.8 0 19.2 0 57.6 0 57.6 41.6 0 40-25.6 35.2-40-1.6-6.4 0-6.4 3.2-1.6 51.2 54.4-20.8 72-48 78.4zM313.6 217.585c-11.2 8-25.6 12.8-40 12.8-33.6 0-62.4-24-62.4-56 0-30.4 28.8-56 62.4-56s62.4 24 62.4 56v190.4l187.2 46.4v-140.8c-11.2 8-25.6 12.8-40 12.8-35.2 0-62.4-24-62.4-56 0-30.4 28.8-56 62.4-56 35.2 0 62.4 24 62.4 56v265.6l-233.6-57.6v-217.6h1.6z" />
<glyph unicode="&#xe952;" horiz-adv-x="1178" d="M664 739.2h172.8l-219.2 220.8 1.6-172.8c-1.6-27.2 19.2-48 44.8-48z" />
<glyph unicode="&#xe953;" horiz-adv-x="1178" d="M731.415 960h-390.093c-12.931 0-25.329-5.136-34.47-14.277s-14.277-21.541-14.277-34.469v-207.239l438.84-255.986 219.42-92.59 219.42 92.59v255.986l-438.84 255.986z" />
<glyph unicode="&#xe954;" horiz-adv-x="1178" d="M292.575 703.949h438.84v-255.985h-438.84v255.985z" />
<glyph unicode="&#xe955;" horiz-adv-x="1178" d="M1121.492 960h-390.093v-255.986h438.84v207.239c0 12.928-5.135 25.327-14.277 34.469s-21.542 14.277-34.47 14.277z" />
<glyph unicode="&#xe956;" horiz-adv-x="1178" d="M731.415 448h-438.84v-463.25c0-12.928 5.135-25.326 14.277-34.468s21.54-14.277 34.47-14.277h780.211c12.928 0 25.326 5.135 34.468 14.277s14.277 21.54 14.277 34.468v207.265l-438.863 255.985z" />
<glyph unicode="&#xe957;" horiz-adv-x="1178" d="M731.4 448h438.84v-255.985h-438.84v255.985z" />
<glyph unicode="&#xe958;" horiz-adv-x="1178" d="M609.462 777.15h-316.887v-694.851h316.887c12.92 0.020 25.308 5.153 34.458 14.277 9.147 9.126 14.31 21.501 14.364 34.422v597.406c-0.041 12.929-5.199 25.316-14.349 34.452-9.147 9.135-21.542 14.275-34.473 14.295z" />
<glyph unicode="&#xe959;" horiz-adv-x="1178" d="M572.972 740.5h-280.397v-694.85h280.397c12.908 0.038 25.275 5.181 34.406 14.303 9.134 9.124 14.287 21.486 14.339 34.394v597.407c-0.038 12.917-5.187 25.293-14.321 34.426-9.132 9.133-21.509 14.281-34.424 14.321z" />
<glyph unicode="&#xe95a;" horiz-adv-x="1178" d="M572.972 740.5h-280.397v-621.693h280.397c12.915 0.038 25.293 5.187 34.424 14.321 9.134 9.132 14.282 21.509 14.321 34.424v524.201c-0.038 12.917-5.187 25.293-14.321 34.426-9.132 9.133-21.509 14.281-34.424 14.321z" />
<glyph unicode="&#xe95b;" horiz-adv-x="1178" d="M536.404 740.5h-243.83v-621.693h243.83c12.918 0.038 25.293 5.187 34.427 14.321 9.132 9.132 14.28 21.509 14.321 34.424v524.201c-0.041 12.917-5.189 25.293-14.321 34.426-9.134 9.133-21.509 14.281-34.427 14.321z" />
<glyph unicode="&#xe95c;" horiz-adv-x="1178" d="M48.746 740.5h487.709c12.928 0 25.326-5.136 34.468-14.277s14.28-21.541 14.28-34.47v-487.708c0-12.928-5.138-25.329-14.28-34.47s-21.54-14.277-34.468-14.277h-487.709c-6.408 0-12.752 1.265-18.672 3.717-5.919 2.455-11.296 6.052-15.823 10.588-4.527 4.534-8.117 9.915-10.562 15.839s-3.699 12.27-3.689 18.678v487.634c0 12.929 5.136 25.328 14.277 34.47s21.541 14.277 34.469 14.277z" />
<glyph unicode="&#xe95d;" horiz-adv-x="1178" d="M129.225 265.142l118.338 183.375-108.386 182.333h87.218l59.17-116.557c5.43-11.041 9.175-19.292 11.238-24.755h0.768c3.894 8.829 7.98 17.411 12.255 25.746l63.229 115.566h80.061l-111.181-181.32 113.882-184.389h-85.115l-68.355 128.044c-3.215 5.45-5.942 11.174-8.143 17.106h-1.016c-1.994-5.804-4.644-11.359-7.898-16.563l-70.235-128.586h-85.832z" />
<glyph unicode="&#xe95e;" d="M0 448c0 282.77 229.23 512 512 512s512-229.23 512-512c0-282.77-229.23-512-512-512s-512 229.23-512 512z" />
<glyph unicode="&#xe95f;" d="M497.024 569.031c-0.213-0.256-0.299-0.597-0.512-0.853l-148.939-164.556c-8.32-9.259-8.32-24.273 0-33.532 0.085-0.085 0.171-0.128 0.256-0.171 1.851-2.244 4.169-4.053 6.793-5.303 2.624-1.254 5.489-1.92 8.396-1.95h297.92c2.961 0.047 5.875 0.747 8.538 2.044s5.005 3.162 6.865 5.466l0.085-0.085c4.028 4.659 6.242 10.611 6.242 16.768s-2.214 12.109-6.242 16.764l-149.278 165.409c-1.86 2.178-4.169 3.927-6.771 5.127-2.598 1.199-5.427 1.821-8.29 1.821s-5.696-0.621-8.294-1.821c-2.598-1.2-4.907-2.949-6.767-5.127z" />
<glyph unicode="&#xe960;" d="M1024 448c0-282.77-229.23-512-512-512s-512 229.23-512 512c0 282.77 229.23 512 512 512s512-229.23 512-512z" />
<glyph unicode="&#xe961;" d="M526.976 326.967c0.213 0.256 0.299 0.597 0.512 0.853l148.941 164.557c8.316 9.259 8.316 24.273 0 33.532-0.085 0.085-0.171 0.128-0.256 0.171-1.852 2.244-4.173 4.053-6.793 5.303-2.624 1.254-5.491 1.92-8.397 1.95h-297.921c-2.961-0.047-5.874-0.747-8.535-2.044s-5.005-3.162-6.866-5.466l-0.085 0.085c-4.026-4.659-6.242-10.611-6.242-16.768s2.216-12.109 6.242-16.764l149.278-165.41c1.86-2.176 4.169-3.925 6.771-5.124 2.598-1.203 5.427-1.822 8.29-1.822s5.696 0.619 8.294 1.822c2.598 1.199 4.907 2.948 6.767 5.124z" />
<glyph unicode="&#xe962;" glyph-name="assignment" d="M902.481 439.891c10.041 10.041 23.66 15.682 37.858 15.682 14.203 0 27.823-5.641 37.864-15.682s15.679-23.66 15.679-37.86v-298.233c-0.139-36.876-14.854-72.204-40.93-98.28s-61.404-40.785-98.28-40.93h-685.345c-36.877 0.145-72.204 14.854-98.281 40.93s-40.789 61.404-40.93 98.28v685.345c0.141 36.877 14.853 72.204 40.93 98.281s61.404 40.789 98.281 40.93h512.403c14.197 0 27.817-5.641 37.858-15.682s15.685-23.66 15.685-37.86c0-14.2-5.644-27.819-15.685-37.86s-23.66-15.682-37.858-15.682h-512.403c-8.52 0-16.691-3.385-22.716-9.409s-9.409-14.196-9.409-22.716v-685.345c0-8.517 3.385-16.691 9.409-22.715s14.196-9.409 22.716-9.409h685.345c8.517 0 16.691 3.385 22.715 9.409s9.409 14.197 9.409 22.715v298.233c0 14.2 5.644 27.819 15.685 37.86zM406.841 513.8c13.511 0.214 26.604-4.689 36.651-13.725l80.849-84.597 323.934 335.176c4.921 5.063 10.788 9.106 17.275 11.899s13.457 4.283 20.516 4.382c7.060 0.099 14.071-1.193 20.631-3.803s12.541-6.486 17.607-11.408c5.060-4.922 9.108-10.793 11.896-17.277 2.795-6.485 4.283-13.456 4.385-20.516 0.096-7.060-1.193-14.071-3.801-20.631-2.614-6.561-6.487-12.543-11.409-17.606l-363.019-374.795c-5.022-5.126-11.022-9.186-17.645-11.945-6.622-2.765-13.732-4.162-20.906-4.12-7.213 0.030-14.345 1.512-20.97 4.361-6.625 2.855-12.605 7.017-17.581 12.24l-118.865 124.751c-8.6 10.423-12.942 23.712-12.153 37.202s6.649 26.183 16.405 35.533c9.756 9.35 22.686 14.665 36.198 14.879z" />
<glyph unicode="&#xe963;" glyph-name="drag" d="M260.813 960c-35.346 0-64-28.654-64-64v-76.8c0-35.346 28.654-64 64-64h76.785c35.346 0 64 28.654 64 64v76.8c0 35.346-28.654 64-64 64h-76.785zM260.813 550.375c-35.346 0-64-28.654-64-64v-76.8c0-35.347 28.654-64 64-64h76.785c35.346 0 64 28.654 64 64v76.8c0 35.346-28.654 64-64 64h-76.785zM196.812 76.749c0 35.347 28.654 64 64 64h76.785c35.346 0 64-28.653 64-64v-76.8c0-35.347-28.654-64-64-64h-76.785c-35.346 0-64 28.653-64 64v76.8zM670.416 960c-35.346 0-64-28.654-64-64v-76.8c0-35.346 28.654-64 64-64h76.785c35.347 0 64 28.654 64 64v76.8c0 35.346-28.653 64-64 64h-76.785zM606.406 486.375c0 35.346 28.653 64 64 64h76.785c35.346 0 64-28.654 64-64v-76.8c0-35.346-28.654-64-64-64h-76.785c-35.347 0-64 28.653-64 64v76.8zM670.406 140.749c-35.347 0-64-28.653-64-64v-76.8c0-35.347 28.653-64 64-64h76.785c35.346 0 64 28.653 64 64v76.8c0 35.347-28.654 64-64 64h-76.785z" />
<glyph unicode="&#xe964;" glyph-name="lesson" d="M365.714 544.286h48.762c12.933 0 25.335 5.138 34.48 14.282s14.282 21.547 14.282 34.48c0 12.933-5.138 25.335-14.282 34.48s-21.547 14.282-34.48 14.282h-48.762c-12.933 0-25.335-5.138-34.48-14.282s-14.282-21.547-14.282-34.48c0-12.933 5.138-25.335 14.282-34.48s21.547-14.282 34.48-14.282zM365.714 446.761c-12.933 0-25.335-5.135-34.48-14.282-9.144-9.143-14.282-21.548-14.282-34.48s5.138-25.337 14.282-34.48c9.145-9.143 21.547-14.282 34.48-14.282h292.571c12.932 0 25.337 5.14 34.48 14.282s14.282 21.548 14.282 34.48c0 12.932-5.14 25.337-14.282 34.48-9.143 9.148-21.548 14.282-34.48 14.282h-292.571zM902.095 595.973c-0.507 4.479-1.487 8.893-2.926 13.166v4.389c-2.345 5.014-5.471 9.622-9.265 13.653l-292.571 292.571c-4.031 3.793-8.64 6.92-13.653 9.265-1.456 0.207-2.933 0.207-4.389 0-4.954 2.841-10.424 4.664-16.091 5.364h-295.010c-38.797 0-76.006-15.412-103.44-42.846s-42.846-64.642-42.846-103.44v-682.667c0-38.795 15.412-76.005 42.846-103.439s64.642-42.847 103.44-42.847h487.619c38.795 0 76.005 15.414 103.439 42.847s42.847 64.644 42.847 103.439v487.62c0 0 0 0 0 2.926zM609.524 768.103l126.293-126.293h-77.531c-12.932 0-25.337 5.138-34.48 14.282s-14.282 21.547-14.282 34.48v77.531zM804.571 105.428c0-12.932-5.14-25.337-14.282-34.48s-21.548-14.282-34.48-14.282h-487.619c-12.933 0-25.335 5.14-34.48 14.282s-14.282 21.548-14.282 34.48v682.667c0 12.933 5.138 25.335 14.282 34.48s21.547 14.282 34.48 14.282h243.81v-146.286c0-38.797 15.412-76.006 42.846-103.44s64.645-42.846 103.44-42.846h146.286v-438.858zM658.286 251.714h-292.571c-12.933 0-25.335-5.135-34.48-14.282-9.144-9.143-14.282-21.548-14.282-34.48s5.138-25.337 14.282-34.48c9.145-9.143 21.547-14.282 34.48-14.282h292.571c12.932 0 25.337 5.14 34.48 14.282s14.282 21.548 14.282 34.48c0 12.932-5.14 25.337-14.282 34.48-9.143 9.148-21.548 14.282-34.48 14.282z" />
<glyph unicode="&#xe965;" glyph-name="plus-circle" d="M495.765-33.882c266.133 0 481.884 215.745 481.884 481.882s-215.751 481.882-481.884 481.882c-266.136 0-481.882-215.746-481.882-481.882 0-266.138 215.746-481.882 481.882-481.882zM545.951 498.235h100.392c13.312 0 26.082-5.288 35.497-14.702 9.409-9.414 14.697-22.182 14.697-35.494s-5.289-26.080-14.697-35.494c-9.415-9.414-22.185-14.702-35.497-14.702h-100.392v-100.389c0-13.318-5.289-26.082-14.702-35.497s-22.181-14.703-35.494-14.703c-13.313 0-26.081 5.289-35.494 14.703s-14.702 22.179-14.702 35.497v100.389h-100.392c-13.313 0-26.081 5.289-35.494 14.702s-14.702 22.181-14.702 35.494c0 13.313 5.289 26.081 14.702 35.494s22.181 14.702 35.494 14.702h100.392v100.392c0 13.313 5.289 26.081 14.702 35.494s22.181 14.702 35.494 14.702c13.313 0 26.080-5.288 35.494-14.702s14.702-22.182 14.702-35.494v-100.392z" />
<glyph unicode="&#xe966;" glyph-name="quiz" d="M497.118 929.882c-265.035 0-481.882-216.847-481.882-481.882s216.847-481.882 481.882-481.882c265.033 0 481.881 216.847 481.881 481.882s-216.847 481.882-481.881 481.882zM497.118 62.494c-212.028 0-385.506 173.478-385.506 385.506s173.478 385.506 385.506 385.506c212.026 0 385.504-173.478 385.504-385.506s-173.478-385.506-385.504-385.506zM501.953 674.353h-4.819c-48.188 0-91.558-24.094-115.652-62.645-19.275-24.094-14.456-53.007 9.638-67.464s53.007-9.638 67.464 14.456c9.638 14.456 24.094 19.275 38.551 19.275h4.819c24.094 0 43.369-19.275 43.369-43.369 0-19.275-14.456-38.551-28.913-43.369l-33.732-9.638c-19.275-4.819-33.732-24.094-33.732-43.369v-38.551c0-28.913 19.275-48.188 48.188-48.188 24.094 0 48.188 19.275 48.188 43.369 57.826 19.275 96.376 72.282 96.376 134.927 0 77.101-62.645 144.565-139.746 144.565zM545.318 255.343c0-26.618-21.575-48.188-48.188-48.188s-48.189 21.57-48.189 48.188c0 26.612 21.575 48.188 48.189 48.188s48.188-21.576 48.188-48.188z" />
<glyph unicode="&#xe967;" glyph-name="upload-materials" d="M798.292 473.299c-2.108 0-4.096-0.549-6.144-0.61 4.102 20.286 6.162 40.941 6.144 61.648 0 168.528-134.867 305.192-301.175 305.192-166.31 0-301.176-136.665-301.176-305.192 0-1.037 0.301-2.014 0.301-3.052-102.159-14.772-181.007-102.972-181.007-210.583 0-56.66 22.212-111 61.749-151.062s93.161-62.572 149.075-62.572h151.070c7.847 0 15.617 1.566 22.867 4.608s13.837 7.505 19.386 13.125c5.549 5.626 9.95 12.3 12.953 19.643 3.003 7.349 4.548 15.221 4.548 23.173v183.605h-127.819l188.055 244.154 188.053-244.154h-127.817v-183.605c0-33.449 26.744-60.549 59.752-60.549h181.188c23.733 0 47.23 4.734 69.156 13.938s41.845 22.691 58.627 39.695c16.776 17.004 30.088 37.189 39.171 59.404 9.077 22.219 13.752 46.031 13.752 70.078s-4.674 47.859-13.752 70.075c-9.083 22.217-22.395 42.403-39.171 59.407-16.782 17.004-36.701 30.492-58.627 39.694s-45.423 13.939-69.156 13.939z" />
<glyph unicode="&#xe968;" glyph-name="quiz-lesson" horiz-adv-x="1583" d="M661.815 858.396c-57.565 25.435-119.432 38.149-181.309 38.149-114.611 0-229.188-43.623-316.461-130.897-174.546-174.544-174.546-458.49 0-633.040 130.767-130.766 322.875-163.562 484.412-98.392-15.742 14.806-30.625 30.465-44.57 46.897-135.046-45.306-289.88-14.076-397.647 93.69-75.869 75.869-113.879 175.053-113.879 274.266 0 12.402 0.563 24.826 1.748 37.182 8.298 86.493 45.745 170.814 112.131 237.2 75.87 75.87 175.054 113.763 274.266 113.763 45.87 0 91.732-8.099 135.287-24.306 14.452 15.983 29.82 31.171 46.021 45.486zM474.167 497.489l-120.361 120.361c-2.769 2.862-6.083 5.14-9.747 6.702s-7.602 2.374-11.584 2.39c-5.953 0.022-11.777-1.737-16.723-5.051s-8.787-8.031-11.030-13.546c-2.243-5.514-2.786-11.574-1.558-17.399s4.17-11.15 8.447-15.291l126.585-126.584-126.585-126.585c-2.863-2.749-5.15-6.043-6.725-9.687s-2.407-7.566-2.447-11.536c-0.041-3.97 0.711-7.908 2.212-11.583s3.72-7.015 6.527-9.822c2.808-2.808 6.147-5.026 9.822-6.527s7.614-2.253 11.583-2.213c3.97 0.041 7.892 0.872 11.537 2.447s6.937 3.861 9.687 6.726l118.916 118.916c-1.001 13.544-1.51 27.219-1.51 41.009 0 19.332 1.001 38.438 2.955 57.272zM688.574 862.486l-17.078-15.090c-15.795-13.956-30.774-28.76-44.86-44.338l-6.642-7.345-9.281 3.454c-41.906 15.594-86.042 23.39-130.194 23.39-95.488 0-190.913-36.457-263.941-109.486-63.914-63.914-99.937-145.047-107.921-228.269-1.139-11.868-1.681-23.828-1.681-35.788-0.001-95.477 36.565-190.905 109.602-263.942 103.712-103.712 252.698-133.777 382.676-90.171l9.378 3.146 6.4-7.542c13.59-16.014 28.097-31.277 43.442-45.71l16.625-15.638-21.167-8.537c-166.763-67.277-365.137-33.457-500.201 101.607l10.326 10.326c126.713-126.715 311.022-161.438 469.303-104.169 5.064 1.829 10.101 3.755 15.109 5.775-3.896 3.665-7.739 7.381-11.528 11.149-11.522 11.456-22.548 23.384-33.042 35.75-135.046-45.306-289.88-14.077-397.646 93.689-75.87 75.87-113.88 175.054-113.88 274.267 0 12.402 0.563 24.826 1.748 37.182 8.299 86.493 45.746 170.814 112.132 237.2 75.869 75.87 175.053 113.763 274.266 113.763 45.869 0 91.731-8.1 135.286-24.307 10.88 12.032 22.278 23.613 34.16 34.71 3.902 3.645 7.857 7.238 11.863 10.777-4.937 2.181-9.906 4.269-14.903 6.263-53.274 21.259-109.836 31.886-166.406 31.886-114.612 0-229.189-43.623-316.462-130.898-174.545-174.543-174.546-458.489 0-633.039l-10.326-10.326c-180.248 180.251-180.248 473.445 0 653.69 0 0 0 0 0 0zM153.731 775.916c90.13 90.131 208.473 135.174 326.787 135.174 63.872 0 127.752-13.125 187.21-39.395l20.846-9.21zM489.421 502.841l-0.718-6.916c-1.903-18.334-2.877-36.938-2.877-55.765 0-13.431 0.496-26.747 1.471-39.932l0.493-6.672-123.552-123.553c-4.073-4.21-8.937-7.574-14.315-9.898-5.427-2.346-11.268-3.585-17.181-3.645s-11.777 1.059-17.251 3.294c-5.475 2.235-10.448 5.54-14.628 9.721s-7.485 9.154-9.721 14.627c-2.235 5.475-3.355 11.339-3.294 17.252s1.299 11.754 3.645 17.181c2.324 5.378 5.689 10.243 9.899 14.315l116.163 116.164-116.182 116.182c-6.32 6.152-10.668 14.048-12.487 22.682-1.828 8.676-1.020 17.7 2.321 25.913s9.062 15.239 16.429 20.174c7.365 4.936 16.039 7.555 24.906 7.523 5.931-0.023 11.799-1.233 17.255-3.559 5.416-2.308 10.318-5.669 14.424-9.887l125.201-125.2zM353.817 617.792l120.361-120.361c-1.954-18.833-2.955-37.939-2.955-57.271 0-13.79 0.509-27.466 1.511-41.009l-118.917-118.916c-2.749-2.864-6.043-5.151-9.687-6.726s-7.566-2.407-11.536-2.447c-3.97-0.040-7.908 0.712-11.583 2.213s-7.015 3.719-9.822 6.527c-2.808 2.807-5.026 6.146-6.527 9.822s-2.253 7.613-2.213 11.583c0.040 3.969 0.872 7.891 2.447 11.536s3.861 6.937 6.726 9.687l126.584 126.585-126.584 126.584c-4.278 4.14-7.22 9.465-8.448 15.29s-0.684 11.885 1.558 17.4c2.243 5.515 6.085 10.232 11.031 13.546s10.769 5.073 16.722 5.051c3.982-0.016 7.921-0.829 11.585-2.39s6.977-3.84 9.746-6.703zM1046.063 896.364c-114.595 0-229.273-43.62-316.534-130.88-174.522-174.52-174.522-458.437 0-632.957s458.433-174.52 632.96 0c174.518 174.519 174.518 458.436 0 632.957-87.263 87.26-201.83 130.88-316.425 130.88zM1046.063 837.042c99.207 0 198.377-37.888 274.237-113.748 151.72-151.72 151.72-396.859 0-548.578-151.72-151.722-396.862-151.722-548.581 0-151.72 151.72-151.72 396.859 0 548.578 75.86 75.86 175.147 113.748 274.344 113.748zM1222.749 568.406c-5.688-0.521-11.115-2.665-15.621-6.177l-217.935-163.513-101.047 101.045c-2.749 2.863-6.042 5.15-9.685 6.724s-7.565 2.407-11.535 2.447c-3.969 0.041-7.906-0.711-11.581-2.212s-7.014-3.719-9.821-6.526c-2.807-2.808-5.025-6.146-6.526-9.821s-2.253-7.612-2.212-11.581c0.040-3.969 0.872-7.891 2.447-11.535s3.86-6.936 6.724-9.686l119.34-119.342c5.073-5.063 11.795-8.131 18.944-8.644s14.243 1.562 19.987 5.847l238.685 179.014c5.064 3.685 8.834 8.871 10.789 14.821s1.983 12.364 0.084 18.333c-1.89 5.969-5.613 11.19-10.64 14.924s-11.106 5.792-17.371 5.881c-1.005 0.051-2.020 0.051-3.025 0v0zM965.306 338.172c5.073-5.063 11.804-8.131 18.944-8.645 7.149-0.513 14.243 1.562 19.987 5.848l238.685 179.013c5.064 3.685 8.834 8.871 10.789 14.821s1.983 12.364 0.093 18.333c-1.899 5.969-5.623 11.19-10.65 14.925s-11.106 5.791-17.361 5.881c-1.015 0.051-2.029 0.051-3.035 0-5.688-0.521-11.106-2.665-15.621-6.178l-217.935-163.512-101.045 101.045c-2.749 2.863-6.043 5.149-9.686 6.724s-7.565 2.406-11.534 2.447c-3.969 0.040-7.907-0.712-11.582-2.212s-7.013-3.719-9.82-6.527c-2.808-2.807-5.026-6.145-6.527-9.82s-2.252-7.613-2.212-11.582c0.041-3.968 0.872-7.89 2.447-11.534s3.86-6.937 6.724-9.686l119.338-119.342zM1251.607 502.649l-238.611-178.956c-8.555-6.383-19.149-9.495-29.789-8.731-10.65 0.765-20.657 5.335-28.216 12.875l-119.254 119.257c-4.21 4.071-7.574 8.936-9.897 14.313-2.346 5.427-3.585 11.267-3.645 17.179s1.059 11.776 3.294 17.25c2.234 5.474 5.539 10.446 9.72 14.626s9.153 7.485 14.626 9.72c5.474 2.235 11.338 3.355 17.25 3.294s11.753-1.299 17.179-3.645c5.377-2.324 10.241-5.688 14.313-9.897l91.993-91.993 207.714 155.841c6.693 5.176 14.718 8.336 23.142 9.108l1.331-14.541-0.745 14.584c1.424 0.072 2.839 0.076 4.254 0.012 9.235-0.189 18.181-3.248 25.591-8.755 7.494-5.561 13.042-13.338 15.863-22.228s2.774-18.443-0.13-27.305c-2.904-8.826-8.49-16.522-15.984-22.007zM719.215 775.752c90.12 90.119 208.566 135.157 326.866 135.157 118.291 0 236.628-45.041 326.74-135.157 180.224-180.222 180.224-473.385 0-653.608s-473.381-180.223-653.606 0c-180.226 180.223-180.226 473.386 0 653.608zM1309.985 712.912c-73.021 73.019-168.429 109.471-263.903 109.471-95.483 0-191.011-36.456-264.026-109.471-146.017-146.017-146.017-381.91 0-527.927s381.907-146.018 527.93 0c146.013 146.017 146.013 381.91 0 527.927zM729.539 765.426c87.262 87.261 201.937 130.881 316.542 130.881 114.595 0 229.153-43.62 316.416-130.881 174.518-174.519 174.518-458.436 0-632.957-174.527-174.518-458.435-174.518-632.958 0-174.522 174.52-174.522 458.437 0 632.957zM1320.308 723.237c-75.86 75.86-175.030 113.748-274.227 113.748-99.207 0-198.492-37.888-274.352-113.748-151.72-151.72-151.72-396.859 0-548.578 151.72-151.721 396.86-151.721 548.579 0 151.72 151.72 151.72 396.859 0 548.578z" />
<glyph unicode="&#xe969;" glyph-name="assignment-lesson" horiz-adv-x="843" d="M591.649 193.138h-366.372c-14.123 0-24.924 10.8-24.924 24.925s10.8 24.925 24.924 24.925h366.372c14.126 0 24.926-10.8 24.926-24.925s-10.8-24.925-24.926-24.925zM591.649 345.172h-366.372c-14.123 0-24.924 10.8-24.924 24.924s10.8 24.923 24.924 24.923h366.372c14.126 0 24.926-10.8 24.926-24.923s-10.8-24.924-24.926-24.924zM591.649 498.036h-366.372c-14.123 0-24.924 10.8-24.924 24.924s10.8 24.923 24.924 24.923h366.372c14.126 0 24.926-10.8 24.926-24.923s-10.8-24.924-24.926-24.924zM748.67-35.448h-664.62c-36.554 0-66.462 29.913-66.462 66.464v747.7c0 36.554 29.908 66.462 66.462 66.462h664.62c36.557 0 66.464-29.908 66.464-66.462v-747.7c0-36.551-29.907-66.464-66.464-66.464zM84.051 795.33c-9.139 0-16.616-7.477-16.616-16.615v-747.7c0-9.138 7.477-16.613 16.616-16.613h664.62c9.138 0 16.613 7.475 16.613 16.613v747.7c0 9.138-7.475 16.615-16.613 16.615h-664.62zM229.423 712.351c-14.123 0-24.923 10.8-24.923 24.924v166.155c0 14.123 10.8 24.923 24.923 24.923s24.924-10.8 24.924-24.923v-166.155c0-14.123-10.8-24.924-24.924-24.924zM603.275 712.351c-14.125 0-24.925 10.8-24.925 24.924v166.155c0 14.123 10.8 24.923 24.925 24.923 14.119 0 24.919-10.8 24.919-24.923v-166.155c0-14.123-10.8-24.924-24.919-24.924z" />
<glyph unicode="&#xe96a;" glyph-name="zoom-lesson" d="M251.14 543.579l-0.057-168.567c0.095-16.044 6.916-30.538 17.875-41.019 10.998-10.505 26.134-16.956 42.744-16.902l254.722 0.036c1.020 0 1.909 0.657 1.909 1.693l0.037 168.57c-0.151 32.051-27.399 58.031-60.619 57.903l-254.704-0.037c-1.039 0-1.908-0.656-1.908-1.677zM228.824 543.579c0 12.817 10.96 23.209 24.225 23.209l254.666-0.037c46.182 0.146 82.709-34.129 82.898-79.324l0.038-168.607c0-12.812-10.979-23.227-24.225-23.227l-254.666 0.060c-22.77-0.096-43.462 8.746-58.484 23.112-14.985 14.33-24.32 34.184-24.414 56.192l-0.038 168.622zM712.457 560.279c6.481 5.16 14.981 8.824 23.239 5.215 8.638-3.774 11.15-12.89 11.15-21.312v-225.976c0-8.571-2.476-17.739-11.523-21.299-8.011-3.132-16.029 0.295-22.51 4.981l-109.634 77.117v104.247l109.279 77.028zM724.528 542.175l-99.033-69.808v-82.533l99.033-69.665v222.006zM493.882 17.595c-236.861 0-428.875 192.012-428.875 428.876 0 236.861 192.014 428.875 428.875 428.875s428.874-192.014 428.874-428.875c0-236.864-192.012-428.876-428.874-428.876zM493.882-35.412c266.136 0 481.881 215.745 481.881 481.883 0 266.136-215.745 481.882-481.881 481.882s-481.882-215.746-481.882-481.882c0-266.138 215.746-481.883 481.882-481.883z" />
<glyph unicode="&#xe96b;" glyph-name="video-lesson" horiz-adv-x="1243" d="M3.5 818.414c0 56.965 46.312 103.157 103.312 103.157h963.663c27.377 0.014 53.636-10.845 73.011-30.189s30.274-45.59 30.303-72.967v-757.45c0-56.964-46.314-103.161-103.314-103.161h-963.663c-27.377-0.007-53.64 10.847-73.013 30.193s-30.272 45.59-30.299 72.967v757.45zM72.34 818.414v-757.45c0.027-9.121 3.673-17.854 10.136-24.291s15.216-10.043 24.335-10.028h963.663c9.121-0.015 17.869 3.591 24.335 10.028s10.108 15.17 10.138 24.291v757.45c-0.029 9.119-3.672 17.856-10.138 24.29s-15.214 10.040-24.335 10.026h-963.663c-9.119 0.014-17.872-3.592-24.335-10.026s-10.109-15.171-10.136-24.29zM537.013 715.050c-9.129 0-17.883 3.626-24.339 10.081s-10.081 15.21-10.081 24.339c0 9.129 3.626 17.883 10.081 24.338s15.21 10.082 24.339 10.082h103.26c9.129 0 17.884-3.626 24.339-10.082s10.081-15.209 10.081-24.338c0-9.129-3.626-17.884-10.081-24.339s-15.21-10.081-24.339-10.081h-103.26zM227.231 715.050c-9.129 0-17.884 3.626-24.339 10.081s-10.081 15.21-10.081 24.339c0 9.129 3.626 17.883 10.081 24.338s15.21 10.082 24.339 10.082h103.26c9.129 0 17.883-3.626 24.339-10.082s10.081-15.209 10.081-24.338c0-9.129-3.626-17.884-10.081-24.339s-15.21-10.081-24.339-10.081h-103.26zM846.797 715.050c-9.128 0-17.883 3.626-24.342 10.081-6.451 6.455-10.079 15.21-10.079 24.339s3.628 17.883 10.079 24.338c6.459 6.456 15.214 10.082 24.342 10.082h103.256c9.128 0 17.883-3.626 24.342-10.082 6.451-6.455 10.079-15.209 10.079-24.338s-3.628-17.884-10.079-24.339c-6.459-6.455-15.214-10.081-24.342-10.081h-103.256zM537.013 95.488c-9.129 0-17.883 3.628-24.339 10.079-6.455 6.459-10.081 15.214-10.081 24.342s3.626 17.883 10.081 24.335c6.456 6.459 15.21 10.086 24.339 10.086h103.26c9.129 0 17.884-3.628 24.339-10.086 6.455-6.451 10.081-15.206 10.081-24.335s-3.626-17.883-10.081-24.342c-6.455-6.451-15.21-10.079-24.339-10.079h-103.26zM227.231 95.488c-9.129 0-17.884 3.628-24.339 10.079-6.455 6.459-10.081 15.214-10.081 24.342s3.626 17.883 10.081 24.335c6.455 6.459 15.21 10.086 24.339 10.086h103.26c9.129 0 17.883-3.628 24.339-10.086 6.455-6.451 10.081-15.206 10.081-24.335s-3.626-17.883-10.081-24.342c-6.456-6.451-15.21-10.079-24.339-10.079h-103.26zM846.797 95.488c-9.128 0-17.883 3.628-24.342 10.079-6.451 6.459-10.079 15.214-10.079 24.342s3.628 17.883 10.079 24.335c6.459 6.459 15.214 10.086 24.342 10.086h103.256c9.128 0 17.883-3.628 24.342-10.086 6.451-6.451 10.079-15.206 10.079-24.335s-3.628-17.883-10.079-24.342c-6.459-6.451-15.214-10.079-24.342-10.079h-103.256zM538.286 589.193l189.311-120.47c4.884-3.109 8.9-7.4 11.687-12.475s4.242-10.77 4.242-16.559c0-5.789-1.456-11.483-4.242-16.559s-6.802-9.365-11.687-12.475l-189.311-120.471c-22.924-14.594-52.903 1.876-52.903 29.034v240.941c0 27.158 29.98 43.628 52.903 29.033v0zM554.222 381.915l90.783 57.774-90.783 57.775v-115.549z" />
<glyph unicode="&#xe96c;" glyph-name="text-lesson" horiz-adv-x="904" d="M279.965 591.035h96.376c13.306 0 24.094 10.788 24.094 24.094s-10.788 24.094-24.094 24.094h-96.376c-13.306 0-24.094-10.788-24.094-24.094s10.788-24.094 24.094-24.094zM832.253 624.406c-1.223 2.927-2.988 5.565-5.198 7.774l-289.099 289.1c-2.209 2.212-4.847 3.976-7.773 5.2-2.915 1.218-6.059 1.873-9.277 1.873h-313.224c-79.806-0.088-144.476-64.759-144.565-144.565v-674.636c0.089-79.806 64.759-144.474 144.565-144.565h481.885c79.806 0.090 144.474 64.759 144.565 144.565v505.977c0 3.218-0.657 6.361-1.879 9.276zM545 846.097l206.875-206.873h-142.637c-35.467 0.030-64.208 28.771-64.238 64.236v142.638zM785.944 109.152c-0.072-53.2-43.177-96.31-96.376-96.376h-481.885c-53.2 0.066-96.309 43.177-96.376 96.376v674.636c0.067 53.2 43.177 96.309 96.376 96.376h289.129v-176.706c0.080-62.056 50.368-112.344 112.426-112.424h176.706v-481.883zM255.87 422.377c0-13.306 10.788-24.094 24.094-24.094h337.321c13.3 0 24.094 10.788 24.094 24.094s-10.794 24.094-24.094 24.094h-337.321c-13.306 0-24.094-10.788-24.094-24.094zM617.285 253.717h-337.321c-13.306 0-24.094-10.788-24.094-24.094s10.788-24.094 24.094-24.094h337.321c13.3 0 24.094 10.788 24.094 24.094s-10.794 24.094-24.094 24.094zM843.36 629.003c1.813-4.34 2.807-9.059 2.807-13.92v-505.978c-0.096-86.45-70.15-156.515-156.6-156.612h-481.897c-86.449 0.096-156.516 70.15-156.612 156.6v674.649c0.096 86.448 70.15 156.516 156.599 156.612h313.237c4.861 0 9.58-0.992 13.92-2.805 4.354-1.82 8.317-4.463 11.654-7.803l289.091-289.089-8.517-8.524c2.211-2.208 3.976-4.847 5.204-7.773 1.217-2.915 1.873-6.058 1.873-9.276v-505.978c-0.090-79.806-64.759-144.474-144.565-144.565h-481.885c-79.806 0.090-144.477 64.759-144.565 144.565v674.637c0.088 79.806 64.758 144.476 144.565 144.565h313.224c3.217 0 6.361-0.656 9.276-1.873 2.926-1.224 5.565-2.988 7.773-5.2l289.099-289.1zM609.226 590.988c-62.058 0.080-112.347 50.368-112.426 112.423v176.706h-289.129c-53.2-0.067-96.309-43.177-96.376-96.376v-674.637c0.067-53.2 43.176-96.304 96.376-96.376h481.885c53.2 0.072 96.304 43.177 96.376 96.376v481.884h-176.706zM773.885 578.941h-164.659c-68.7 0.088-124.385 55.758-124.473 124.455v164.674h-277.073c-46.554-0.062-84.277-37.785-84.339-84.339v-674.615c0.062-46.556 37.788-84.281 84.344-84.341h481.852c46.556 0.060 84.287 37.786 84.347 84.347v469.819zM376.33 578.941c19.959 0 36.141 16.182 36.141 36.141s-16.182 36.141-36.141 36.141h-96.376c-19.96 0-36.141-16.182-36.141-36.141s16.182-36.141 36.141-36.141h96.376zM544.988 846.050v-142.638c0.029-35.465 28.77-64.205 64.237-64.235h142.637l-206.875 206.873zM557.036 816.966v-113.544c0.023-28.819 23.379-52.174 52.196-52.198h113.544l-165.74 165.742zM279.953 386.188h337.32c19.956 0 36.141 16.182 36.141 36.141s-16.185 36.141-36.141 36.141h-337.32c-19.96 0-36.141-16.182-36.141-36.141s16.182-36.141 36.141-36.141zM279.953 265.716c-19.96 0-36.141-16.179-36.141-36.141 0-19.956 16.182-36.141 36.141-36.141h337.32c19.956 0 36.141 16.185 36.141 36.141 0 19.962-16.185 36.141-36.141 36.141h-337.32zM376.33 590.988h-96.376c-13.306 0-24.094 10.788-24.094 24.094s10.788 24.094 24.094 24.094h96.376c13.305 0 24.094-10.788 24.094-24.094s-10.789-24.094-24.094-24.094zM279.953 398.235c-13.306 0-24.094 10.788-24.094 24.094s10.788 24.094 24.094 24.094h337.32c13.306 0 24.094-10.788 24.094-24.094s-10.788-24.094-24.094-24.094h-337.32zM279.953 253.669h337.32c13.306 0 24.094-10.788 24.094-24.094s-10.788-24.094-24.094-24.094h-337.32c-13.306 0-24.094 10.788-24.094 24.094s10.788 24.094 24.094 24.094z" />
<glyph unicode="&#xe96d;" glyph-name="stream-lesson" d="M107.751-21.239c-11.277 0-22.091 4.482-30.065 12.457-7.974 7.969-12.454 18.787-12.454 30.063s4.48 22.088 12.454 30.063c7.974 7.975 18.789 12.457 30.065 12.457s22.092-4.482 30.066-12.457c7.974-7.975 12.454-18.787 12.454-30.063s-4.48-22.094-12.454-30.063c-7.974-7.975-18.789-12.457-30.066-12.457zM79.405 134.662c-7.517 0-14.728 2.988-20.043 8.306-5.316 5.313-8.302 12.523-8.302 20.040s2.986 14.728 8.302 20.046c5.316 5.313 12.526 8.3 20.043 8.3h28.346c93.925 0 170.076-76.149 170.076-170.074v-28.347c0-7.517-2.986-14.728-8.302-20.046-5.316-5.313-12.526-8.3-20.044-8.3s-14.728 2.988-20.043 8.3c-5.316 5.319-8.302 12.529-8.302 20.046v28.347c0 30.069-11.946 58.91-33.21 80.173s-50.104 33.208-80.175 33.208h-28.346zM79.405 248.049c-7.517 0-14.728 2.988-20.043 8.3-5.316 5.319-8.302 12.529-8.302 20.046s2.986 14.728 8.302 20.040c5.316 5.319 12.526 8.306 20.043 8.306h28.346c156.555 0 283.461-126.91 283.461-283.461v-28.347c0-7.517-2.986-14.728-8.303-20.046-5.316-5.313-12.526-8.3-20.043-8.3s-14.728 2.988-20.044 8.3c-5.316 5.319-8.302 12.529-8.302 20.046v28.347c0 125.247-101.521 226.768-226.768 226.768h-28.346zM107.751 389.778c0-7.517-2.986-14.728-8.302-20.043s-12.526-8.303-20.044-8.303c-7.517 0-14.728 2.986-20.043 8.303s-8.302 12.526-8.302 20.043v396.845c0 78.291 63.438 141.73 141.858 141.73h680.037c78.39 0 141.872-63.439 141.872-141.858v-680.035c0-78.348-63.47-141.872-141.734-141.872h-396.843c-7.518 0-14.728 2.988-20.044 8.3-5.316 5.319-8.302 12.529-8.302 20.046s2.986 14.728 8.302 20.046c5.316 5.313 12.526 8.3 20.044 8.3h396.843c46.941 0 85.040 38.123 85.040 85.167v680.034c0.012 11.188-2.187 22.268-6.463 32.607-4.271 10.339-10.547 19.732-18.456 27.644s-17.306 14.186-27.642 18.463c-10.336 4.277-21.42 6.475-32.605 6.465h-680.035c-11.179 0.019-22.253-2.167-32.586-6.433s-19.725-10.526-27.637-18.424c-7.911-7.899-14.188-17.279-18.471-27.606s-6.487-21.396-6.487-32.575v-396.845z" />
<glyph unicode="&#xe96e;" glyph-name="clear" horiz-adv-x="1088" d="M646.957 448.073l366.579 365.779c16.051 16.055 25.069 37.831 25.069 60.536s-9.018 44.482-25.069 60.537c-16.058 16.055-37.83 25.075-60.531 25.075s-44.474-9.020-60.531-25.075l-365.724-366.631-365.727 366.631c-16.053 16.055-37.826 25.075-60.528 25.075s-44.475-9.020-60.528-25.075c-16.053-16.055-25.072-37.831-25.072-60.537s9.018-44.481 25.072-60.536l366.579-365.779-366.579-365.782c-7.99-7.923-14.333-17.35-18.661-27.744-4.328-10.387-6.556-21.536-6.556-32.787 0-11.258 2.228-22.4 6.556-32.794 4.328-10.387 10.67-19.821 18.661-27.744 7.925-7.994 17.354-14.336 27.742-18.662 10.389-4.333 21.532-6.56 32.786-6.56s22.397 2.227 32.785 6.56c10.388 4.326 19.818 10.669 27.743 18.662l365.727 366.63 365.724-366.63c7.93-7.994 17.357-14.336 27.744-18.662 10.387-4.333 21.536-6.56 32.787-6.56s22.4 2.227 32.787 6.56c10.387 4.326 19.814 10.669 27.744 18.662 7.987 7.923 14.33 17.357 18.656 27.744 4.333 10.394 6.56 21.536 6.56 32.794 0 11.251-2.227 22.4-6.56 32.787-4.326 10.394-10.669 19.821-18.656 27.744l-366.579 365.782z" />
<glyph unicode="&#xe96f;" glyph-name="hint" horiz-adv-x="1088" d="M528.188-64c101.264 0 200.254 30.029 284.452 86.285 84.198 56.262 149.824 136.224 188.576 229.779 38.752 93.558 48.89 196.504 29.133 295.822s-68.518 190.548-140.122 262.152c-71.603 71.604-162.835 120.368-262.154 140.123s-202.264 9.616-295.82-29.136c-93.556-38.752-173.519-104.377-229.779-188.574s-86.287-183.188-86.287-284.452c0.147-135.744 54.137-265.888 150.124-361.875s226.131-149.978 361.876-150.125zM528.188 874.666c84.387 0 166.878-25.023 237.041-71.906 70.17-46.883 124.851-113.519 157.146-191.482s40.742-163.752 24.282-246.516c-16.461-82.765-57.101-158.79-116.768-218.458-59.674-59.674-135.699-100.307-218.462-116.774-82.765-16.461-168.554-8.013-246.516 24.282s-144.6 86.982-191.482 157.146c-46.883 70.163-71.907 152.657-71.907 237.043 0.124 113.121 45.117 221.573 125.105 301.562s188.44 124.98 301.562 125.105zM570.946 661.333c0 23.564-19.103 42.667-42.667 42.667s-42.666-19.103-42.666-42.667v-255.957c0-23.564 19.102-42.667 42.666-42.667s42.667 19.103 42.667 42.667v255.957zM570.833 234.586c0-23.565-19.103-42.669-42.667-42.669s-42.666 19.104-42.666 42.669c0 23.565 19.102 42.662 42.666 42.662s42.667-19.098 42.667-42.662z" />
<glyph unicode="&#xe970;" glyph-name="warning" horiz-adv-x="1161" d="M694.286 883.886c-13.155 23.114-32.193 42.333-55.183 55.702s-49.109 20.412-75.703 20.412c-26.594 0-52.713-7.043-75.703-20.412s-42.028-32.588-55.181-55.702l-396.382-706.208c-12.587-22.159-19.094-47.254-18.862-72.738s7.194-50.456 20.182-72.39c13.179-22.624 32.103-41.363 54.856-54.313 22.753-12.957 48.526-19.668 74.708-19.456h792.763c26.18-0.212 51.958 6.499 74.711 19.456 22.746 12.95 41.677 31.689 54.852 54.313 12.991 21.934 19.948 46.906 20.18 72.39s-6.274 50.579-18.862 72.738l-396.377 706.208zM563.4 140.82c-9.001 0-17.8 2.669-25.283 7.666-7.484 5.004-13.317 12.111-16.762 20.425s-4.346 17.463-2.59 26.296c1.757 8.827 6.091 16.937 12.455 23.299s14.473 10.697 23.301 12.452c8.828 1.754 17.978 0.853 26.294-2.587 8.316-3.447 15.423-9.277 20.423-16.759 5.001-7.489 7.67-16.288 7.67-25.286 0-12.070-4.794-23.648-13.329-32.181s-20.11-13.326-32.18-13.326zM608.909 368.362c0-12.070-4.794-23.645-13.329-32.18s-20.11-13.329-32.18-13.329c-12.070 0-23.645 4.794-32.18 13.329s-13.329 20.11-13.329 32.18v273.053c0 12.070 4.794 23.645 13.329 32.18s20.11 13.329 32.18 13.329c12.070 0 23.645-4.794 32.18-13.329s13.329-20.11 13.329-32.18v-273.053z" />
<glyph unicode="&#xe971;" glyph-name="copy" horiz-adv-x="796" d="M586.854 909.111h-503.018c-46.319 0-83.836-37.516-83.836-83.837v-586.853h83.836v586.853h503.018v83.837zM712.607 741.439h-461.099c-46.32 0-83.836-37.517-83.836-83.836v-586.856c0-46.319 37.517-83.837 83.836-83.837h461.099c46.319 0 83.837 37.518 83.837 83.837v586.856c0 46.32-37.518 83.836-83.837 83.836zM712.607 70.747h-461.099v586.856h461.099v-586.856z" />
</font>
</defs>
</svg>
